<?xml version="1.0" encoding="UTF-8" standalone="no"?>
<!-- Created with Inkscape (http://www.inkscape.org/) -->

<svg
   version="1.1"
   id="svg2"
   width="136"
   height="261.44"
   viewBox="0 0 136 261.44"
   xmlns="http://www.w3.org/2000/svg"
   xmlns:svg="http://www.w3.org/2000/svg">
  <defs
     id="defs6" />
  <g
     id="g8">
    <path
       style="fill:#000000;stroke-width:0.32"
       d="m 54.545481,258.27614 c -11.19334,-1.00059 -23.09212,-3.12578 -26.08,-4.65803 -6.25052,-3.20541 -8.33284,-5.51159 -9.27098,-10.2677 -0.56659,-2.87244 -1.21761,-9.12145 -0.98883,-9.49161 0.30607,-0.49523 -0.78663,-3.52461 -1.59677,-4.42682 l -0.7949,-0.88524 0.20026,0.96 c 0.11014,0.528 0.54044,1.45628 0.95623,2.06284 0.99826,1.45628 0.63552,1.74691 -0.49601,0.39742 -0.85929,-1.02482 -1.609,-3.5827 -1.609,-5.48963 0,-0.46345 -0.14598,-0.98862 -0.32441,-1.16705 -0.21305,-0.21304 -0.31174,-7.12848 -0.28749,-20.144 0.0203,-10.90077 0.032,-21.12822 0.0261,-22.72766 -0.006,-1.65425 0.2394,-4.06116 0.56955,-5.58248 0.31921,-1.47091 0.54083,-3.33028 0.49248,-4.13191 -0.0483,-0.80165 -0.19286,-8.80153 -0.32115,-17.77753 -0.20601,-14.41392 -0.30343,-16.59694 -0.83416,-18.69119 -0.77332,-3.05147 -0.76638,-6.73334 0.0193,-10.2292 0.52928,-2.35511 0.63953,-4.3661 0.75216,-13.71961 0.0726,-6.028 0.0758,-10.96 0.007,-10.96 -0.0687,0 -0.65917,0.26952 -1.31216,0.59893 -1.13493,0.57254 -3.9825996,1.36378 -6.5472496,1.8192 l -1.2,0.2131 v -1.1489 c 0,-0.63189 0.3144,-2.10662 0.69867,-3.277187 0.81962,-2.496746 1.68821,-3.439114 5.7066396,-6.191392 1.85553,-1.270877 2.84364,-2.161616 2.93644,-2.647088 0.0769,-0.402426 0.16675,-3.178554 0.19961,-6.169175 0.0473,-4.306067 -0.052,-5.803709 -0.47706,-7.197491 -0.47035,-1.542118 -0.55955,-4.37456 -0.72055,-22.88 -0.10107,-11.616 -0.10434,-21.468982 -0.007,-21.895517 0.0971,-0.426534 0.45706,-0.930534 0.8,-1.119999 0.89665,-0.495381 1.00764,-0.721821 1.24768,-2.54546 0.28906,-2.196067 1.62,-5.083448 2.71711,-5.894576 0.58959,-0.435908 1.01927,-1.167191 1.26936,-2.160362 0.57196,-2.271492 2.03415,-5.244298 3.4245,-6.962446 0.73525,-0.908588 2.69799,-2.511372 4.79444,-3.9151647 4.03269,-2.7003166 14.74635,-8.285898 16.48323,-8.5935637 9.80036,-1.73600572 30.49871,-1.89096532 44.12719,-0.3303612 3.72714,0.4267958 4.20738,0.5637672 7.04,2.0078803 9.836459,5.0147798 15.024519,8.2707663 17.001789,10.6701983 1.45641,1.767368 2.62307,4.051493 3.32665,6.513039 0.39187,1.371013 0.8918,2.244506 1.78031,3.110611 0.91451,0.891457 1.40322,1.764245 1.88139,3.36 0.61578,2.054953 0.89379,3.276165 0.94608,4.155721 0.0131,0.22 0.23161,0.4 0.48564,0.4 0.25402,0 0.68602,0.320042 0.96,0.711203 0.43715,0.624131 0.49782,3.004096 0.49556,19.44 -0.003,18.837437 -0.25501,24.052925 -1.29557,26.769747 -0.24157,0.630743 -0.28102,2.840644 -0.12575,7.044564 l 0.22624,6.125513 2.78499,1.962451 c 4.28728,3.02104 4.92672,3.714375 5.77941,6.266522 0.65837,1.970543 0.87376,3.866173 0.48361,4.256323 -0.2806,0.2806 -5.54697,-0.98024 -7.16902,-1.71636 -1.88821,-0.8569 -2.07939,-0.90988 -1.83055,-0.50723 0.0927,0.15 0.18377,5.07911 0.20237,10.95357 0.0306,9.66851 0.097,10.93927 0.70063,13.40728 0.88018,3.59875 0.88044,7.37735 6.4e-4,10.72642 -0.63349,2.41178 -0.68259,3.61107 -0.84805,20.71347 -0.12687,13.11447 -0.0754,18.39955 0.18563,19.04 0.58822,1.44351 0.74809,7.75481 0.72363,28.56653 -0.0226,19.21599 -0.04,19.75157 -0.73907,22.71552 -0.66211,2.80731 -2.02097,5.48686 -2.52627,4.98156 -0.10172,-0.10172 0.11072,-0.58487 0.4721,-1.07366 0.36137,-0.48879 0.76587,-1.38419 0.89888,-1.98978 0.22675,-1.03236 0.20604,-1.07152 -0.33178,-0.62736 -0.95865,0.79169 -1.8122,3.13356 -1.7891,4.9087 0.0302,2.31996 -0.85469,9.33949 -1.4162,11.23431 -0.93811,3.16563 -3.17352,5.38377 -8.14431,8.08139 -2.03374,1.1037 -3.18136,1.45273 -7.52,2.28713 -6.492699,1.24866 -8.137179,1.50092 -15.109179,2.31771 -7.37232,0.86368 -24.57685,1.08558 -32.09082,0.41388 z m 16.18681,-0.5294 c 0.13192,-0.132 -2.21414,-0.24 -5.21347,-0.24 -2.99934,0 -5.93934,-0.0927 -6.53334,-0.20596 -0.62907,-0.11998 -0.96922,-0.0866 -0.81467,0.08 0.43872,0.47283 12.1147,0.813 12.56148,0.36596 z m 7.60403,-0.16 c 0.0817,-0.132 -1.16977,-0.19917 -2.78111,-0.14926 -4.49945,0.13936 -4.91322,0.28823 -0.94861,0.34131 1.96961,0.0264 3.64799,-0.06 3.72972,-0.19205 z m -20.91084,-0.25868 c -1.21169,-0.26362 -2.88,-0.30827 -2.88,-0.0771 0,0.14066 0.756,0.23904 1.68,0.21862 0.924,-0.0204 1.464,-0.0841 1.2,-0.14156 z m 23.44,-0.0471 c -0.396,-0.0763 -1.044,-0.0763 -1.44,0 -0.396,0.0763 -0.072,0.13867 0.72,0.13867 0.792,0 1.116,-0.0624 0.72,-0.13867 z m 1.75334,0.0325 c -0.10634,-0.10634 -0.38234,-0.1177 -0.61334,-0.0253 -0.25527,0.10215 -0.17945,0.17798 0.19334,0.19333 0.33733,0.0139 0.52633,-0.0617 0.42,-0.16807 z m -33.35334,-0.78658 c -2.464,-0.32544 -5.272,-0.66595 -6.24,-0.75669 -1.65271,-0.15494 -1.62345,-0.13799 0.48,0.27802 1.232,0.24366 3.32,0.54381 4.64,0.66699 1.32,0.12319 2.46,0.27968 2.53334,0.34776 0.0733,0.0681 0.79333,0.10845 1.6,0.0897 0.83979,-0.0195 -0.44815,-0.28698 -3.01334,-0.62578 z m 41.03742,-0.002 c 2.59185,-0.36388 4.77473,-0.72388 4.85085,-0.8 0.24076,-0.24075 -0.81035,-0.15246 -4.03545,0.33899 -1.72305,0.26256 -4.21282,0.60397 -5.53282,0.7587 -1.42056,0.16652 -1.90926,0.29818 -1.19751,0.32262 0.66136,0.0227 3.32308,-0.25643 5.91493,-0.62031 z m -18.6126,0.0453 c -2.13928,-0.2495 -2.33954,-0.96502 -0.29148,-1.0414 l 1.54666,-0.0577 -1.54054,-0.12069 c -1.00993,-0.0791 -1.49696,-0.25213 -1.41401,-0.50232 0.0845,-0.25472 1.23387,-0.41223 3.45657,-0.47366 1.83153,-0.0506 3.46035,-0.22233 3.6196,-0.38159 0.17273,-0.17273 -0.47118,-0.2146 -1.59603,-0.10378 -1.03708,0.10217 -1.79934,0.0916 -1.69392,-0.0234 0.10541,-0.11504 2.19341,-0.351 4.64,-0.52433 2.44658,-0.17334 4.91633,-0.39362 5.48833,-0.48951 0.62125,-0.10414 1.04,-0.0396 1.04,0.16016 0,0.18398 -0.684,0.35871 -1.52,0.38829 -1.48444,0.0525 -1.4905,0.0568 -0.25879,0.18297 1.35608,0.13889 7.34702,-0.55578 12.78998,-1.48304 2.33193,-0.39727 3.46398,-0.47055 3.69531,-0.23922 0.23134,0.23133 0.3335,0.1546 0.3335,-0.2505 0,-0.48903 -0.16912,-0.54952 -1.04,-0.37198 -1.7312,0.35293 -11.78146,1.7896 -12.34971,1.76538 -0.29166,-0.0125 0.0683,-0.28885 0.79997,-0.61425 0.75444,-0.33554 1.42505,-0.89027 1.54922,-1.28151 0.32382,-1.02024 -0.0315,-1.13436 -0.64012,-0.20557 -0.29248,0.44638 -0.98798,0.95524 -1.54557,1.13079 -4.23825,1.33442 -25.03574,1.55821 -34.29379,0.36902 -2.32036,-0.29805 -2.65735,-0.43356 -3.6,-1.44766 -0.57457,-0.61812 -1.04,-0.91782 -1.04,-0.66969 0,0.9773 0.47062,1.55283 1.72692,2.11192 1.80798,0.80458 1.07219,0.7655 -6.04692,-0.3212 -3.344,-0.51045 -6.19469,-0.81545 -6.33488,-0.67779 -0.14018,0.13766 0.14782,0.26437 0.64,0.28157 0.49219,0.0172 2.69488,0.31941 4.89488,0.67157 3.59328,0.5752 7.94567,1.11679 11.28,1.40365 0.66,0.0568 1.2,-0.0118 1.2,-0.1525 0,-0.14066 -0.8208,-0.25575 -1.824,-0.25575 -1.13999,0 -1.71,-0.11273 -1.52,-0.30062 0.18951,-0.1874 1.14761,-0.18759 2.544,-6.4e-4 1.232,0.16506 6.02126,0.39508 10.6428,0.51116 4.62153,0.11608 8.34618,0.26767 8.27699,0.33686 -0.20487,0.20487 -12.2664,0.10887 -12.81593,-0.10201 -0.27712,-0.10634 -0.50386,-0.0339 -0.50386,0.16089 0,0.23751 1.15987,0.35424 3.52,0.35424 2.91556,0 3.52,0.0824 3.52,0.48 0,0.3512 -0.40785,0.49547 -1.52,0.53768 l -1.52,0.0577 1.52,0.11985 c 2.18952,0.17265 2.07557,0.9738 -0.16,1.12487 -0.924,0.0624 0.48,0.11664 3.12,0.12044 2.64,0.004 4.09117,-0.0758 3.22482,-0.17681 z m -11.15195,-0.2574 c -0.66393,-0.0693 -1.67193,-0.0681 -2.24,0.003 -0.56808,0.0707 -0.0249,0.12737 1.20713,0.12595 1.232,-0.001 1.69679,-0.0592 1.03287,-0.12853 z m 17.92,0 c -0.66393,-0.0693 -1.67193,-0.0681 -2.24,0.003 -0.56808,0.0707 -0.0249,0.12737 1.20713,0.12595 1.232,-0.001 1.69679,-0.0592 1.03287,-0.12853 z m -22.87287,-0.31187 c -0.396,-0.0763 -1.044,-0.0763 -1.44,0 -0.396,0.0763 -0.072,0.13867 0.72,0.13867 0.792,0 1.116,-0.0624 0.72,-0.13867 z m 27.5244,6.4e-4 c -0.39358,-0.076 -1.11358,-0.0779 -1.6,-0.004 -0.48642,0.0736 -0.1644,0.1357 0.7156,0.13811 0.88,0.003 1.27798,-0.0578 0.8844,-0.13374 z m -30.88067,-0.31461 c -0.30595,-0.0801 -0.88195,-0.083 -1.28,-0.006 -0.39805,0.0765 -0.14773,0.14208 0.55627,0.14563 0.704,0.004 1.02968,-0.0591 0.72373,-0.13917 z m 33.92,0 c -0.30595,-0.0801 -0.88195,-0.083 -1.28,-0.006 -0.39805,0.0765 -0.14773,0.14208 0.55627,0.14563 0.704,0.004 1.02968,-0.0591 0.72373,-0.13917 z m -45.28373,-0.31213 c -0.22,-0.0888 -0.58,-0.0888 -0.8,0 -0.22,0.0888 -0.04,0.16141 0.4,0.16141 0.44,0 0.62,-0.0726 0.4,-0.16141 z m 8,0 c -0.22,-0.0888 -0.58,-0.0888 -0.8,0 -0.22,0.0888 -0.04,0.16141 0.4,0.16141 0.44,0 0.62,-0.0726 0.4,-0.16141 z m 40.64609,0.002 c -0.21665,-0.0876 -0.64865,-0.093 -0.96,-0.0119 -0.31135,0.0811 -0.13409,0.15285 0.39391,0.15937 0.528,0.007 0.78274,-0.0599 0.56609,-0.14752 z m 7.36,0 c -0.21665,-0.0876 -0.64865,-0.093 -0.96,-0.0119 -0.31135,0.0811 -0.13409,0.15285 0.39391,0.15937 0.528,0.007 0.78274,-0.0599 0.56609,-0.14752 z m -58.7741,-0.58294 c -1.55535,-0.55428 -1.78096,-0.9079 -1.78709,-2.80106 -0.004,-1.30814 -0.10276,-1.53526 -0.7249,-1.67099 -1.97192,-0.43024 -1.93133,-0.45954 -2.32496,1.67824 -0.20389,1.10735 -0.27795,2.07068 -0.16458,2.14075 0.11337,0.0701 0.8459,0.20745 1.62784,0.30529 0.78194,0.0978 1.8537,0.31013 2.3817,0.47175 1.534,0.46955 2.36578,0.36559 0.99199,-0.12398 z m 8.2141,0.26294 c -0.21665,-0.0876 -0.64865,-0.093 -0.96,-0.0119 -0.31135,0.0811 -0.13409,0.15285 0.39391,0.15937 0.528,0.007 0.78274,-0.0599 0.56609,-0.14752 z m 12.30725,0.0166 c -0.10634,-0.10634 -0.38234,-0.1177 -0.61334,-0.0252 -0.25527,0.10215 -0.17945,0.17798 0.19334,0.19333 0.33733,0.0139 0.52633,-0.0617 0.42,-0.16807 z m 33.13275,-0.0166 c -0.21665,-0.0876 -0.64865,-0.093 -0.96,-0.0119 -0.31135,0.0811 -0.13409,0.15285 0.39391,0.15937 0.528,0.007 0.78274,-0.0599 0.56609,-0.14752 z m 8.07391,-0.12605 c 0.703999,-0.17639 1.927999,-0.4019 2.719999,-0.50113 0.792,-0.0992 1.46848,-0.20795 1.50329,-0.24161 0.0348,-0.0336 -0.10087,-1.01958 -0.30152,-2.19093 l -0.36481,-2.12974 -0.97848,0.18472 c -1.45084,0.2739 -1.77848,0.67049 -1.77848,2.15269 0,1.64032 -0.46141,2.28748 -1.919999,2.69293 -1.48893,0.41388 -0.51467,0.44265 1.12,0.0331 z m -55.76,-0.19595 c -0.22,-0.0888 -0.58,-0.0888 -0.8,0 -0.22,0.0888 -0.04,0.16141 0.4,0.16141 0.44,0 0.62,-0.0726 0.4,-0.16141 z m 10.07334,0.0186 c -0.10634,-0.10633 -0.38234,-0.1177 -0.61334,-0.0252 -0.25527,0.10215 -0.17945,0.17798 0.19334,0.19334 0.33733,0.0139 0.52633,-0.0617 0.42,-0.16807 z m 29.28666,-0.0186 c -0.22,-0.0888 -0.58,-0.0888 -0.8,0 -0.22,0.0888 -0.04,0.16141 0.4,0.16141 0.44,0 0.62,-0.0726 0.4,-0.16141 z m 10.56609,0.002 c -0.21665,-0.0876 -0.64865,-0.093 -0.96,-0.0119 -0.31135,0.0811 -0.13409,0.15285 0.39391,0.15937 0.528,0.007 0.78274,-0.0599 0.56609,-0.14752 z m -51.84609,-0.322 c -0.22,-0.0888 -0.58,-0.0888 -0.8,0 -0.22,0.0888 -0.04,0.16141 0.4,0.16141 0.44,0 0.62,-0.0726 0.4,-0.16141 z m 53.59334,0.0186 c -0.10634,-0.10633 -0.38234,-0.1177 -0.61334,-0.0253 -0.25527,0.10215 -0.17945,0.17798 0.19334,0.19334 0.33733,0.0139 0.52633,-0.0617 0.42,-0.16807 z m -55.68,-0.32 c -0.10634,-0.10633 -0.38234,-0.1177 -0.61334,-0.0252 -0.25527,0.10215 -0.17945,0.17798 0.19334,0.19334 0.33733,0.0139 0.52633,-0.0617 0.42,-0.16807 z m 57.92,0 c -0.10634,-0.10633 -0.38234,-0.1177 -0.61334,-0.0252 -0.25527,0.10215 -0.17945,0.17798 0.19334,0.19334 0.33733,0.0139 0.52633,-0.0617 0.42,-0.16807 z m -39.51334,-0.35816 c -0.572,-0.071 -1.508,-0.071 -2.08,0 -0.572,0.071 -0.104,0.12907 1.04,0.12907 1.144,0 1.612,-0.0581 1.04,-0.12907 z m 22.4,0 c -0.572,-0.071 -1.508,-0.071 -2.08,0 -0.572,0.071 -0.104,0.12907 1.04,0.12907 1.144,0 1.612,-0.0581 1.04,-0.12907 z m -49.36,-1.3874 c 0,-0.72778 -0.14507,-0.94111 -0.64,-0.94111 -0.49371,0 -0.64,0.21333 -0.64,0.93333 0,0.87488 0.49603,1.39218 1.04,1.0846 0.132,-0.0746 0.24,-0.5592 0.24,-1.07682 z m 11.75334,1.10556 c -0.10634,-0.10634 -0.38234,-0.1177 -0.61334,-0.0252 -0.25527,0.10215 -0.17945,0.17798 0.19334,0.19333 0.33733,0.0139 0.52633,-0.0617 0.42,-0.16807 z m 51.2,0 c -0.10634,-0.10634 -0.38234,-0.1177 -0.61334,-0.0252 -0.25527,0.10215 -0.17945,0.17798 0.19334,0.19333 0.33733,0.0139 0.52633,-0.0617 0.42,-0.16807 z m 12.246659,-1.12091 c 0,-0.71243 -0.14748,-0.92576 -0.64,-0.92576 -0.48941,0 -0.64,0.21333 -0.64,0.90667 0,1.06493 0.21482,1.35361 0.83129,1.11705 0.24679,-0.0947 0.44871,-0.58879 0.44871,-1.09796 z m -74.668069,-0.0458 c -0.0888,-0.22 -0.1614,-0.04 -0.1614,0.4 0,0.44 0.0726,0.62 0.1614,0.4 0.0888,-0.22 0.0888,-0.58 0,-0.8 z m 67.94807,0.4 c 0,-0.176 -0.144,-0.32 -0.32,-0.32 -0.176,0 -0.32,0.144 -0.32,0.32 0,0.176 0.144,0.32 0.32,0.32 0.176,0 0.32,-0.144 0.32,-0.32 z m 5.011929,-0.72 c -0.0888,-0.22 -0.16141,-0.04 -0.16141,0.4 0,0.44 0.0726,0.62 0.16141,0.4 0.0888,-0.22 0.0888,-0.58 0,-0.8 z m -75.735849,-0.16 c -0.003,-0.78862 -0.32666,-1.04615 -3.11184,-2.48 -3.36064,-1.7301 -6.04855,-3.96601 -5.73864,-4.77363 0.10255,-0.26723 0.0487,-0.57098 -0.11957,-0.67501 -0.52318,-0.32334 -0.33696,0.86268 0.36222,2.307 0.8058,1.66455 3.23757,3.80716 6.05609,5.33598 1.14162,0.61923 2.18366,1.13482 2.31566,1.14577 0.132,0.0109 0.23824,-0.37611 0.23608,-0.86011 z m 80.862659,-0.23618 c 3.00834,-1.59646 5.4848,-3.81842 6.35918,-5.70566 0.40218,-0.86807 0.65064,-1.78835 0.55213,-2.04507 -0.13736,-0.35793 -0.23643,-0.37401 -0.42497,-0.0689 -0.13523,0.2188 -0.16814,0.60036 -0.0731,0.84792 0.37986,0.98989 -4.00164,4.24491 -7.83194,5.81836 -0.83354,0.34241 -1.04,0.61009 -1.04,1.34839 0,0.50665 0.08,0.92118 0.17771,0.92118 0.0977,0 1.12419,-0.50228 2.28103,-1.11618 z m -29.978739,0.47298 c 6.2441,-0.53912 6.39607,-0.57892 7.74848,-2.02924 1.44042,-1.54472 1.51443,-1.91977 0.33152,-1.68014 -5.09222,1.03157 -27.1366,1.2904 -35.6,0.41799 -2.552,-0.26306 -4.67981,-0.44158 -4.72847,-0.39671 -0.21508,0.19832 2.07246,2.72349 2.64847,2.9236 2.63022,0.91378 22.05904,1.41558 29.6,0.7645 z m -48.64,-1.23948 c 0,-0.15547 -0.288,-0.35799 -0.64,-0.45004 -0.352,-0.0921 -0.64,-0.0474 -0.64,0.0992 0,0.14661 0.252,0.33243 0.56,0.41291 0.308,0.0805 0.596,0.16305 0.64,0.18347 0.044,0.0204 0.08,-0.0901 0.08,-0.24556 z m 74.827329,0.002 c 0.23503,-0.14898 0.42077,-0.39878 0.41275,-0.5551 -0.008,-0.15632 0.59168,-0.61651 1.33267,-1.02264 0.74099,-0.40613 1.07671,-0.65553 0.74605,-0.55423 -0.33066,0.1013 -1.23311,0.3433 -2.00544,0.53778 -1.48833,0.37476 -2.14059,0.89787 -1.17225,0.94013 0.33584,0.0147 0.41095,0.093 0.17889,0.18667 -0.43097,0.1739 -0.55527,0.75124 -0.16,0.74317 0.132,-0.003 0.4323,-0.1268 0.66733,-0.27578 z m -76.747329,-0.4908 c 0,-0.0723 -1.404,-0.88124 -3.12,-1.79762 -1.716,-0.91638 -3.69055,-2.11722 -4.38788,-2.66853 -0.69734,-0.5513 -1.15487,-0.81918 -1.01673,-0.59527 0.78374,1.27035 8.52461,5.86643 8.52461,5.06142 z m 17.6,-0.66242 c 0,-0.93844 0.19434,-0.88272 -6.15773,-1.76537 -2.59475,-0.36055 -6.01475,-0.92158 -7.6,-1.24673 -1.58525,-0.32515 -2.87907,-0.50181 -2.87515,-0.39259 0.004,0.10922 0.25591,0.50664 0.56,0.88316 0.55053,0.68165 3.5754,1.35889 12.55288,2.81049 3.67318,0.59392 3.52,0.6065 3.52,-0.28896 z m 45.76,0.31161 c 0.792,-0.1081 3.888,-0.63407 6.88,-1.16883 4.264809,-0.76224 5.560979,-1.11134 5.999999,-1.61603 0.308,-0.35406 0.56,-0.74383 0.56,-0.86615 0,-0.12232 -1.25381,0.0315 -2.78624,0.34169 -1.53243,0.31025 -5.096429,0.87759 -7.919999,1.26077 -2.82357,0.38317 -5.31376,0.74484 -5.53376,0.80371 -0.22,0.0589 -0.4,0.48301 -0.4,0.94251 0,0.73889 0.10173,0.81602 0.88,0.66717 0.484,-0.0926 1.528,-0.25674 2.32,-0.36484 z m 22.011229,-3.90628 c 1.40684,-1.33543 1.41899,-1.35987 0.17988,-0.3618 -0.73089,0.5887 -2.70879,1.79037 -4.39534,2.67037 -1.68655,0.88 -3.06855,1.71478 -3.07111,1.85507 -0.01,0.54506 5.85898,-2.80852 7.28657,-4.16364 z m -83.266899,3.78793 c -0.0954,-0.15436 -0.80536,-0.43976 -1.57769,-0.63423 -0.77233,-0.19448 -1.67478,-0.43427 -2.00544,-0.53286 -0.33066,-0.0986 0.1188,0.18168 0.9988,0.62282 1.59475,0.79947 2.91372,1.07724 2.58433,0.54427 z m 52.77567,-1.95013 c 7.67882,-0.84655 21.204589,-2.97954 22.152359,-3.49339 0.27076,-0.1468 -0.5226,-1.70115 -2.56,-5.01554 -1.6238,-2.64155 -3.24656,-5.2047 -3.60615,-5.69588 l -0.653789,-0.89307 -3.34621,0.64298 c -17.30305,3.32483 -35.20931,3.47724 -53.10621,0.45203 -2.728,-0.46112 -5.29345,-0.8492 -5.701,-0.86239 -0.6226,-0.0202 -1.29488,0.87078 -4.20764,5.57603 -2.23421,3.60913 -3.33594,5.67154 -3.099,5.80123 1.47052,0.80488 19.69893,3.36141 27.88764,3.91124 3.61866,0.24297 23.03817,-0.0703 26.24,-0.42324 z m -38.096,0.0444 c -0.1672,-0.14649 -2.176,-0.5135 -4.464,-0.8156 -2.288,-0.30209 -5.852,-0.8789 -7.92,-1.28178 -2.068,-0.40288 -3.76,-0.62675 -3.76,-0.49747 0,0.34222 13.19075,2.7488 15.504,2.82861 0.53009,0.0183 0.81071,-0.0842 0.64,-0.23376 z m 51.376,-0.7246 c 5.741679,-0.92625 8.752929,-1.57007 9.119999,-1.94989 0.21831,-0.22589 0.11661,-0.27214 -0.32,-0.14555 -1.29034,0.37412 -9.370679,1.76585 -12.479999,2.14951 -1.76,0.21717 -3.344,0.53469 -3.52,0.70561 -0.37516,0.36432 1.38142,0.17898 7.2,-0.75968 z m -69.2214,-0.34903 c -0.10215,-0.25527 -0.17798,-0.17945 -0.19333,0.19333 -0.0139,0.33734 0.0617,0.52634 0.16807,0.42 0.10633,-0.10633 0.1177,-0.38233 0.0253,-0.61333 z m 1.2214,-4.48617 c 0.704,-1.26024 2.30308,-3.89767 3.55351,-5.86095 l 2.27351,-3.5696 -0.75351,-0.72523 -0.75351,-0.72522 -6.4e-4,0.91358 c -3.2e-4,0.59601 -0.66094,1.8591 -1.90016,3.63359 -1.04474,1.496 -2.57859,3.692 -3.40855,4.88 -1.52895,2.18853 -1.91937,2.42404 -3.03169,1.82874 -0.34042,-0.18219 -0.61896,-0.25102 -0.61896,-0.15295 0,0.19676 2.89925,2.08864 3.18265,2.0768 0.0975,-0.004 0.75335,-1.03851 1.45735,-2.29876 z m 81.594199,0.71556 c 0.12302,-0.19905 -0.14716,-0.2508 -0.71572,-0.13709 -0.80407,0.16082 -1.02526,0.0167 -1.84877,-1.20482 -0.51449,-0.76311 -2.07,-3.01423 -3.45669,-5.00248 -2.04774,-2.93608 -2.49563,-3.78957 -2.38484,-4.54447 l 0.13642,-0.92946 -0.7423,0.80095 c -0.40826,0.44052 -0.7423,0.85467 -0.7423,0.92034 0,0.0657 1.10356,1.89424 2.45236,4.06351 1.34879,2.16927 2.93942,4.77167 3.53473,5.78312 l 1.08238,1.83898 1.24355,-0.63441 c 0.68396,-0.34893 1.33248,-0.7783 1.44118,-0.95417 z m -89.082379,-0.60138 c -0.3695,-0.24534 -0.67182,-0.7731 -0.67182,-1.1728 0,-0.39971 -0.216,-0.80962 -0.48,-0.91093 -0.264,-0.10131 -0.48,-0.0401 -0.48,0.13604 0,0.57751 0.97272,2.66325 1.53221,3.28542 0.53508,0.59503 0.55039,0.59175 0.65961,-0.14125 0.0735,-0.493 -0.11863,-0.90342 -0.56,-1.19648 z m 92.996469,0.77037 c 0.93444,-1.44288 1.30791,-2.87652 0.69687,-2.67504 -0.24484,0.0807 -0.49122,0.45982 -0.54751,0.84243 -0.0563,0.3826 -0.38029,0.84438 -0.72,1.02619 -0.35374,0.18931 -0.61765,0.66758 -0.61765,1.1193 0,1.07608 0.34815,0.98441 1.18829,-0.31288 z m -84.788289,-5.63881 c 2.88781,-4.21665 3.83627,-6.10156 3.04,-6.04145 -0.132,0.01 -0.85359,0.86118 -1.60354,1.8916 -0.74994,1.03042 -2.53481,3.34088 -3.96636,5.13435 -2.026,2.5382 -2.5039,3.32349 -2.15646,3.54349 0.2455,0.15545 0.66236,0.27784 0.92636,0.27198 0.264,-0.006 1.956,-2.16585 3.76,-4.79997 z m 80.883579,4.49463 c 0.11075,-0.17919 -0.0607,-0.66658 -0.38111,-1.0831 -0.32036,-0.41652 -2.05847,-2.64765 -3.86247,-4.95807 -1.804,-2.31041 -3.28913,-4.37901 -3.30028,-4.59689 -0.0112,-0.21788 -0.16116,-0.0434 -0.33333,0.38776 -0.27505,0.68876 -0.005,1.23248 2.22248,4.48 1.39454,2.03286 2.87654,4.23 3.29333,4.88255 0.74769,1.17063 1.91527,1.60958 2.36138,0.88775 z m -87.944979,-0.6942 c -0.10215,-0.25527 -0.17798,-0.17945 -0.19333,0.19333 -0.0139,0.33734 0.0617,0.52634 0.16807,0.42 0.10633,-0.10633 0.1177,-0.38233 0.0253,-0.61333 z m -1.11993,-0.96933 c -0.22962,-0.22962 -0.37867,-0.24852 -0.37867,-0.048 0,0.42713 0.37844,0.80556 0.592,0.592 0.0909,-0.0909 -0.005,-0.33574 -0.21333,-0.544 z m 6.30637,-3.87457 c 4.57746,-5.77742 4.2598,-5.10179 4.00233,-8.51255 -0.12148,-1.60914 -0.32254,-2.88473 -0.44682,-2.83463 -0.33971,0.13694 -7.66095,7.9812 -8.22789,8.81568 -0.44425,0.65389 -0.43993,1.01082 0.0443,3.65776 0.29514,1.61324 0.61731,3.06371 0.71593,3.22328 0.21782,0.35243 -0.0433,0.64271 3.91211,-4.34954 z m 84.343479,1.75846 c 0.27032,-1.28502 0.49148,-2.69789 0.49148,-3.13972 0,-0.58545 -1.14756,-2.05017 -4.23146,-5.40095 -2.3273,-2.5287 -4.27983,-4.54926 -4.33895,-4.49014 -0.11087,0.11086 -0.17579,0.58069 -0.53282,3.85625 l -0.20928,1.92 3.93626,5.01589 c 2.16493,2.75873 4.03909,4.9167 4.16477,4.79547 0.12569,-0.12122 0.44969,-1.27179 0.72,-2.5568 z m 2.02968,2.01697 c -0.0985,-0.0985 -0.27746,0.0791 -0.39763,0.39467 -0.17365,0.45606 -0.1369,0.49282 0.17914,0.17913 0.21869,-0.21706 0.31701,-0.47527 0.21849,-0.5738 z m -94.338199,-1.76157 c 0,-0.35753 -0.22221,-0.73532 -0.4938,-0.83953 -0.65857,-0.25272 -0.7977,-0.0635 -0.57618,0.78354 0.23186,0.88666 1.06998,0.93051 1.06998,0.056 z m 96.765759,0.14387 c 0.30261,-0.78858 0.23242,-1.09383 -0.25152,-1.09383 -0.41929,0 -0.83424,0.6497 -0.83424,1.30617 0,0.4969 0.87962,0.32487 1.08576,-0.21234 z m -94.845759,-1.60454 c 0,-0.66109 -0.54903,-0.81454 -1.06571,-0.29786 -0.26635,0.26634 -0.40121,0.76833 -0.30513,1.13573 0.16277,0.62243 0.20494,0.62878 0.77151,0.11604 0.32963,-0.29832 0.59933,-0.72757 0.59933,-0.95391 z m 93.439999,0.55582 c 0,-0.55791 -0.57304,-1.32511 -0.98976,-1.32511 -0.48537,0 -0.53502,0.92498 -0.0842,1.56862 0.52587,0.75079 1.07396,0.62652 1.07396,-0.24351 z M 19.943481,233.9067 c -0.52368,-5.54852 -1.23071,-16.73174 -1.56285,-24.72 -0.45471,-10.93586 -0.35712,-10.37926 -1.93025,-11.00871 -0.70282,-0.28121 -1.36107,-0.51129 -1.46278,-0.51129 -0.22295,0 0.16047,19.25009 0.50108,25.15713 0.24166,4.19106 0.24371,4.19934 1.41657,5.7354 1.1878,1.5556 1.90099,3.53321 2.2747,6.30747 0.11923,0.88517 0.37031,1.52 0.60117,1.52 0.30127,0 0.34024,-0.5953 0.16236,-2.48 z m 97.961999,1.10974 c 0,-2.16012 0.7471,-4.49291 1.9819,-6.1884 0.62541,-0.85874 1.21982,-1.84934 1.32092,-2.20134 0.35596,-1.2394 1.06953,-28.96 0.74547,-28.96 -0.1957,0 -2.75673,0.98959 -2.7814,1.07475 -0.007,0.0249 -0.0853,1.70125 -0.17348,3.72525 -0.62026,14.23454 -1.41686,26.78065 -2.02672,31.92 -0.21489,1.81089 -0.18199,2 0.34799,2 0.47597,0 0.58532,-0.256 0.58532,-1.37026 z m -96.279819,-4.77131 c -0.91819,-10.91391 -1.25052,-19.63932 -0.68018,-17.85843 0.25291,0.7897 0.25694,0.78764 0.31337,-0.16 0.12178,-2.04523 0.3144,0.0677 0.9773,10.72 0.37787,6.072 0.71694,11.0709 0.75351,11.10866 0.0366,0.0378 2.26092,-2.26624 4.94301,-5.12 l 4.87653,-5.18866 -0.17771,-1.76 c -0.47122,-4.66697 -0.82827,-11.10986 -1.01082,-18.24 -0.1104,-4.312 -0.29559,-8.0207 -0.41154,-8.24155 -0.22872,-0.43564 -2.89307,2.79019 -5.57548,6.75045 -1.61791,2.38866 -4.36817,7.69496 -4.36817,8.42787 0,0.23278 -0.12442,0.42323 -0.2765,0.42323 -0.32889,0 -0.6835,-2.34743 -0.6835,-4.52466 0,-1.14298 0.12261,-1.55534 0.46247,-1.55534 0.32469,0 0.49152,0.45283 0.56,1.52 l 0.0975,1.52 1.08649,-2.08 c 1.83538,-3.5137 5.14804,-8.23424 7.62853,-10.87067 1.03448,-1.09951 1.04498,-1.14243 1.04498,-4.27142 v -3.16076 l -0.95993,0.60779 c -1.60394,1.01554 -8.50653,7.71424 -9.11687,8.84756 -0.31448,0.58396 -0.49122,1.26554 -0.39275,1.51462 0.11041,0.27931 0.18871,0.17693 0.20429,-0.26712 0.0288,-0.82233 0.81916,-0.97443 1.11103,-0.21383 0.10683,0.2784 0.19423,1.36291 0.19423,2.41004 0,1.39714 -0.12776,1.9529 -0.48,2.08807 -0.27789,0.10664 -0.48,0.58521 -0.48,1.13662 0,0.61915 -0.13997,0.90615 -0.4,0.82018 -0.43716,-0.14454 -0.80799,-2.31328 -0.85196,-4.98264 -0.0266,-1.61185 -0.066,-1.6899 -0.74804,-1.48025 -0.396,0.12172 -0.73278,0.23943 -0.7484,0.26156 -0.0156,0.0221 0.0818,2.34425 0.21641,5.16025 0.13464,2.816 0.33518,7.136 0.44563,9.6 0.29402,6.55912 1.06225,17.75819 1.30608,19.04 0.0502,0.264 0.10233,1.268 0.1158,2.23111 l 0.0245,1.75111 0.69268,-0.69268 c 0.68382,-0.68382 0.68775,-0.75132 0.3075,-5.27111 z m 94.706129,4.30157 c 0.0145,-0.66 0.0811,-1.56 0.14807,-2 0.35946,-2.36178 1.32555,-18.40462 1.86305,-30.93782 0.14,-3.26426 0.0356,-3.62218 -1.05659,-3.62218 -0.13574,0 -0.33038,1.40081 -0.43253,3.1129 -0.1048,1.75663 -0.33442,3.16247 -0.52701,3.22667 -0.18772,0.0626 -0.3413,0.32626 -0.3413,0.58598 0,0.25972 0.15429,0.37686 0.34287,0.26032 0.37992,-0.23481 0.33782,5.03052 -0.0452,5.65023 -0.12237,0.198 -0.40597,-0.11451 -0.65656,-0.72351 -0.83455,-2.0282 -2.8545,-5.76742 -4.18025,-7.73829 -2.48721,-3.69747 -5.4901,-7.30068 -5.72194,-6.86586 -0.12069,0.22636 -0.31443,4.65956 -0.43053,9.85156 -0.1161,5.192 -0.3933,11.456 -0.61601,13.92 l -0.40493,4.48 3.89204,4.16 c 2.14062,2.288 4.32158,4.65219 4.84657,5.25376 l 0.95452,1.09375 0.20158,-2.05375 c 0.21106,-2.15038 1.12395,-15.81733 1.25934,-18.85376 0.0981,-2.19894 0.68168,-2.31212 0.82511,-0.16 0.11127,1.66955 -0.34771,10.09991 -0.94399,17.33878 -0.28518,3.46213 -0.26995,4.3065 0.0849,4.70783 0.68204,0.77132 0.91045,0.60425 0.93875,-0.68661 z m -39.866309,0.55735 c 6.87392,-0.56574 9.17512,-0.96203 10.72,-1.84611 1.10102,-0.63008 1.32701,-0.68597 0.96,-0.23746 -0.45503,0.5561 -0.41342,0.57475 0.8,0.35859 3.52586,-0.62807 9.73366,-2.26672 9.49423,-2.50614 -0.22408,-0.22408 -4.69735,0.41911 -8.4295,1.21205 -0.74302,0.15786 -0.83262,0.0951 -0.68268,-0.47829 0.18026,-0.68928 0.608,-0.88028 0.79129,-0.35333 0.0634,0.18238 1.69038,0.0232 4.01447,-0.39286 3.88648,-0.6957 3.90676,-0.70393 3.71576,-1.50666 -0.10563,-0.44393 -0.25264,-0.91514 -0.3267,-1.04714 -0.074,-0.132 -1.78214,-0.24 -3.79575,-0.24 h -3.66112 v 0.96 c 0,0.528 -0.144,0.96 -0.32,0.96 -0.176,0 -0.32,-0.432 -0.32,-0.96 0,-1.35966 -0.57042,-1.19275 -0.82019,0.24 -0.11506,0.66 -0.56819,1.73282 -1.00697,2.38405 -0.66568,0.98799 -1.07058,1.23796 -2.44531,1.50958 -10.07829,1.99125 -23.28399,1.9928 -33.35625,0.004 -1.91457,-0.37806 -3.04514,-1.61461 -3.32024,-3.63148 -0.22954,-1.68296 -0.97104,-1.92684 -0.97104,-0.31948 0,1.35563 -0.39767,1.26593 -0.44763,-0.10096 l -0.0324,-0.88571 -3.65302,-0.091 c -2.00916,-0.05 -3.75457,0.022 -3.87869,0.16 -0.12411,0.13804 -0.31076,0.61419 -0.41478,1.05812 -0.18798,0.80226 -0.1655,0.81139 3.71868,1.51073 3.44748,0.62071 3.95036,0.64719 4.26897,0.22482 0.30374,-0.40266 0.38555,-0.35116 0.51461,0.32397 0.13036,0.68191 0.0519,0.78067 -0.52115,0.65611 -1.10879,-0.24102 -7.99165,-1.44277 -8.26328,-1.44277 -0.13823,0 -0.25134,0.12691 -0.25134,0.28201 0,0.30728 1.21026,0.64552 6.52848,1.82459 4.10256,0.90954 4.23133,0.91973 3.71152,0.2934 -0.57161,-0.68875 -0.19481,-0.59292 1.08588,0.27619 0.8035,0.54527 1.94545,0.86359 4.09421,1.14127 7.34578,0.94929 15.92609,1.20094 22.49991,0.65989 z m -3.15989,-0.93909 c 2.13406,-0.15517 5.7629,-0.53094 8.06411,-0.83504 l 4.184,-0.55291 0.48001,-2.10437 c 0.264,-1.15741 0.44137,-2.14302 0.39413,-2.19024 -0.12409,-0.1241 -35.78837,-0.13635 -35.91239,-0.0123 -0.14856,0.14856 0.83882,3.8735 1.09573,4.13365 0.45722,0.46298 11.59227,1.70437 16.2143,1.80764 0.88,0.0196 3.34605,-0.0912 5.48011,-0.24639 z m 41.291819,-0.73826 c -0.0888,-0.22 -0.16141,-0.04 -0.16141,0.4 0,0.44 0.0726,0.62 0.16141,0.4 0.0888,-0.22 0.0888,-0.58 0,-0.8 z m -92.150169,-0.79391 c -0.0811,-0.31135 -0.15285,-0.13409 -0.15937,0.39391 -0.007,0.528 0.0599,0.78274 0.14751,0.56609 0.0877,-0.21665 0.093,-0.64865 0.0119,-0.96 z m 17.13824,-0.29802 c -0.22,-0.0888 -0.58,-0.0888 -0.8,0 -0.22,0.0888 -0.04,0.16141 0.4,0.16141 0.44,0 0.62,-0.0726 0.4,-0.16141 z m 59.28,-0.10807 c 0.81543,-0.3504 -0.0259,-0.3504 -1.12,0 -0.64311,0.20596 -0.67449,0.25805 -0.16,0.26561 0.352,0.005 0.928,-0.11435 1.28,-0.26561 z m -62.38715,-0.55169 c 0.33831,-0.46267 0.28528,-0.69207 -0.32869,-1.42173 -0.73799,-0.87705 -1.17193,-2.75156 -1.61736,-6.98658 -0.356,-3.38482 0.22942,-1.90871 0.70659,1.78166 0.24136,1.86656 0.65578,3.81329 0.92094,4.32605 0.927,1.79261 1.73087,0.81037 1.14478,-1.39879 -0.31741,-1.19641 -0.5963,-3.9734 -1.16385,-11.58892 -0.22343,-2.99809 -1.11166,-29.39027 -0.99311,-29.50881 0.28138,-0.28138 0.86884,8.00444 1.16196,16.38881 0.3298,9.43333 1.06371,20.03468 1.53965,22.24 l 0.2417,1.12 4.46727,0.0884 4.46727,0.0884 -0.0728,-14.87396 c -0.0461,-9.42307 0.0418,-14.9448 0.24,-15.06727 0.20202,-0.12486 0.31278,5.13949 0.31278,14.86557 0,9.17515 0.11742,15.05889 0.30052,15.05889 0.1817,0 0.25469,-2.75183 0.18461,-6.96 -0.0842,-5.05854 -0.0445,-6.17319 0.1456,-4.08 0.14383,1.584 0.27872,4.392 0.29976,6.24 0.0422,3.70818 0.22785,4.8 0.81611,4.8 0.28894,0 0.32698,-0.39946 0.14477,-1.52 -0.13595,-0.836 -0.31123,-3.968 -0.38952,-6.96 -0.0783,-2.992 -0.0906,-4.648 -0.0273,-3.68 0.26369,4.03275 0.79793,10.1516 0.97089,11.12 l 0.18575,1.04 h 18.36438 c 10.10042,0 18.36548,-0.108 18.36681,-0.24 0.001,-0.132 0.16091,-1.176 0.35463,-2.32 0.19371,-1.144 0.46853,-4.312 0.6107,-7.04 l 0.25848,-4.96 -0.12653,5.76 c -0.0696,3.168 -0.22022,6.444 -0.33473,7.28 -0.1749,1.27683 -0.12475,1.52 0.31342,1.52 0.28688,0 0.52229,-0.036 0.52312,-0.08 0.0872,-4.61354 0.44914,-13.2443 0.56022,-13.36 0.0845,-0.088 0.0891,2.9 0.0103,6.64 -0.0788,3.74 -0.0238,6.8 0.12233,6.8 0.14611,0 0.26566,-6.768 0.26566,-15.04 0,-10.37112 0.10519,-15.04 0.33885,-15.04 0.23039,0 0.32637,2.53506 0.29986,7.92 -0.0214,4.356 -0.0299,11.124 -0.0189,15.04 l 0.0202,7.11997 h 4.30112 c 2.36561,0 4.37492,-0.11943 4.46513,-0.26539 0.7061,-1.14249 1.587379,-12.57149 1.978219,-25.65461 0.21357,-7.1491 0.85805,-14.92263 1.2686,-15.30139 0.13033,-0.12023 0.14744,0.15558 0.038,0.61293 -0.10942,0.45735 -0.27966,3.98535 -0.37831,7.84 -0.26481,10.34774 -0.76165,21.63201 -1.10461,25.08846 -0.16591,1.672 -0.39265,4.25293 -0.50389,5.73541 -0.11123,1.48247 -0.323759,3.01502 -0.472279,3.40566 -0.14852,0.39063 -0.19068,1.0137 -0.0937,1.38459 0.43331,1.65698 1.491389,0.0833 2.007889,-2.98625 0.61031,-3.62709 1.27721,-13.53297 1.50397,-22.33941 0.1167,-4.532 0.31967,-8.24 0.45105,-8.24 0.13138,0 0.18861,0.252 0.12718,0.56 -0.0614,0.308 -0.18819,4.448 -0.2817,9.2 -0.26545,13.48982 -1.17902,22.54088 -2.44849,24.25792 -0.7109,0.96155 -0.60702,1.77247 0.26427,2.0629 2.0222,0.67407 3.30502,-11.44705 3.76779,-35.60082 0.16852,-8.79581 0.0355,-11.03239 -0.61747,-10.37945 -0.0891,0.0891 -0.26284,2.07183 -0.38607,4.40606 -0.13998,2.65162 -0.33702,4.13109 -0.52514,3.94297 -0.18811,-0.18811 -0.1159,-2.50519 0.19245,-6.17533 0.33749,-4.01695 0.55521,-12.19777 0.68861,-25.87425 0.33778,-34.63036 0.60644,-41.74437 1.77306,-46.95006 0.18553,-0.82786 1.18011,-4.67877 2.21018,-8.55757 1.03008,-3.87881 2.48118,-9.428373 3.22468,-12.332373 1.56522,-6.113558 2.66407,-8.78104 4.12298,-10.008634 l 1.04015,-0.875228 -0.23101,-3.564247 c -0.17067,-2.633286 -0.13589,-3.505462 0.13316,-3.339184 0.26659,0.164765 0.34756,-0.958854 0.30219,-4.193821 l -0.062,-4.418886 -0.19605,3.2 c -0.10783,1.76 -0.22394,3.072579 -0.25803,2.916845 -0.0341,-0.155735 -0.36042,0.09627 -0.7252,0.56 -0.36477,0.463734 -0.84004,0.843155 -1.05615,0.843155 -0.25065,0 -0.82845,2.056813 -1.59563,5.68 -1.62416,7.670442 -3.30305,14.461062 -6.3095,25.520003 -1.38756,5.104 -2.66344,10.288 -2.8353,11.52 -0.78448,5.62361 -1.24241,22.00812 -1.37956,49.35993 -0.0443,8.84395 -0.20007,16.07995 -0.34606,16.08 -0.14598,4e-5 -0.17054,-0.43193 -0.0546,-0.95993 l 0.21085,-0.96 -5.385419,-0.071 -5.38543,-0.071 4.83751,-0.0971 4.837499,-0.0971 0.21194,-10.1519 c 0.11657,-5.58354 0.3568,-18.28789 0.53385,-28.23189 0.17705,-9.944 0.45627,-19.376 0.62047,-20.96 0.33954,-3.27528 1.19863,-7.71086 1.66457,-8.59436 0.46512,-0.88193 0.0274,-1.13787 -3.14446,-1.83861 -13.603169,-3.00525 -23.376809,-4.01179 -35.918189,-3.69906 -8.56794,0.21365 -14.51109,0.84343 -23.08319,2.44607 -6.88278,1.2868 -9.46862,1.99545 -9.3414,2.56002 0.0542,0.24066 0.30322,1.22312 0.55331,2.18326 1.33011,5.10667 1.75228,14.55514 2.33336,52.22268 l 0.21473,13.92 4.64,0.17342 4.64,0.17343 -5.04,0.0666 -5.04,0.0666 v 1.01333 c 0,0.55734 -0.0707,0.94268 -0.15701,0.85633 -0.0864,-0.0864 -0.23151,-8.06636 -0.32258,-17.73334 -0.26637,-28.27666 -0.81604,-44.87012 -1.63165,-49.25632 -0.0982,-0.528 -1.02516,-4.056 -2.05996,-7.84 -1.03479,-3.784 -2.73863,-10.336003 -3.7863,-14.560003 -1.75012,-7.056102 -2.19649,-8.995002 -3.7388,-16.24 -0.33682,-1.58223 -0.68167,-2.48 -0.95259,-2.48 -0.23356,0 -0.72311,-0.379421 -1.08788,-0.843155 -0.36478,-0.463735 -0.69044,-0.715735 -0.7237,-0.56 -0.0332,0.155674 -0.15002,-1.012905 -0.2595,-2.596905 l -0.19906,-2.88 -0.0605,4.098886 c -0.0428,2.901357 0.0419,4.035623 0.2899,3.882349 0.24925,-0.154048 0.30464,0.800957 0.19194,3.309303 l -0.15842,3.525836 1.11953,1.071812 c 1.59373,1.525788 2.36204,3.483158 4.20186,10.704768 0.89216,3.501875 2.14333,8.311049 2.78039,10.687049 2.43172,9.06949 2.69055,10.15076 3.02565,12.64 0.60309,4.47993 0.9581,17.26122 1.13768,40.96 0.096,12.672 0.30874,24.336 0.47269,25.92 0.59671,5.76501 0.72693,9.12 0.35398,9.12 -0.21197,0 -0.35567,-0.6266 -0.35567,-1.55084 0,-0.85296 -0.0937,-2.8701 -0.20809,-4.48253 -0.19245,-2.7112 -0.24382,-2.8807 -0.68304,-2.25363 -0.40685,0.58087 -0.4423,2.03756 -0.24726,10.16253 0.12522,5.21646 0.28415,10.63647 0.35317,12.04447 0.069,1.408 0.2106,4.288 0.3146,6.4 0.20294,4.1212 0.96168,11.44727 1.45495,14.04827 0.3239,1.70791 1.04661,3.07173 1.62777,3.07173 0.19654,0 0.53888,-0.24826 0.76075,-0.55169 z m 15.08049,-6.06164 c -0.3162,-0.3162 -0.25927,-112.68051 0.0572,-112.87609 0.14878,-0.092 0.86878,-0.26286 1.6,-0.37979 l 1.32947,-0.21259 v 56.8409 56.8409 h -1.38666 c -0.76267,0 -1.48267,-0.096 -1.6,-0.21333 z m 2.47466,-0.67642 c -0.0176,-0.21464 -0.0536,-25.49331 -0.08,-56.17483 l -0.048,-55.78458 -0.88,0.1292 -0.88,0.12919 v 56.09394 56.09394 l 0.96,-0.0483 c 0.53603,-0.027 0.94587,-0.22066 0.928,-0.43856 z m 7.78357,0.69466 c -0.32173,-0.32174 -0.278,-113.15969 0.044,-113.66567 0.17301,-0.2718 0.76637,-0.38509 1.6761,-0.32 l 1.40828,0.10076 v 56.96 56.96 l -1.45191,0.0947 c -0.79855,0.0521 -1.55299,-0.006 -1.67652,-0.12984 z m 2.33864,-56.46987 c -0.007,-30.87427 -0.0124,-56.3246 -0.0117,-56.55629 9.6e-4,-0.26335 -0.29874,-0.3833 -0.7993,-0.32 l -0.80073,0.10125 -0.004,56.32 c -0.002,30.976 -0.002,56.39676 6.4e-4,56.49057 0.002,0.0938 0.36959,0.15458 0.81599,0.13503 l 0.81164,-0.0355 -0.0131,-56.13503 z m 8.00839,56.0597 c -0.41381,-0.7732 -0.47131,-112.59484 -0.0582,-113.2555 0.17023,-0.27227 0.76007,-0.3852 1.67136,-0.32 l 1.40828,0.10076 v 56.96 56.96 l -1.33943,0.0974 c -1.07219,0.078 -1.40777,-0.0303 -1.68197,-0.54266 z m 2.24342,-56.38017 -0.0224,-56.45457 -0.7998,-0.10125 -0.79981,-0.10126 v 56.59182 56.59182 l 0.82221,-0.036 0.82221,-0.036 -0.0224,-56.45458 z m 7.97798,0.38185 c 0,-31.15126 0.108,-56.69672 0.24,-56.7677 0.132,-0.071 0.8524,-0.0643 1.60089,0.0148 l 1.36088,0.14386 -0.0809,56.5263 -0.0809,56.5263 -1.52,0.0975 -1.52,0.0975 z m 2.4,0.0436 c 0,-42.55666 -0.0901,-56.07998 -0.37382,-56.08 -0.20561,-10e-6 -0.56561,-0.0736 -0.8,-0.16354 -0.35391,-0.13578 -0.42618,9.37453 -0.42618,56.08 v 56.24352 h 0.8 0.8 z m -50.53048,50.90286 c -0.29913,-1.41116 -0.82576,-14.81164 -0.77745,-19.78288 l 0.0435,-4.48 0.26046,5.28 c 0.62107,12.59043 0.90245,19.64815 0.7879,19.7627 -0.0677,0.0677 -0.20919,-0.28323 -0.31445,-0.77982 z m 14.53048,-23.14288 c 0,-9.81333 -0.1112,-15.04 -0.32,-15.04 -0.18844,0 -0.34575,1.34843 -0.38264,3.28 l -0.0626,3.28 -0.19472,-3.36 -0.19472,-3.36 -0.0829,3.36 c -0.0632,2.56263 -0.15689,3.17484 -0.39461,2.57977 -0.17143,-0.42912 -0.2703,-1.94112 -0.21972,-3.36 l 0.092,-2.57977 1.04,-0.10028 1.04,-0.10027 v 15.22027 c 0,8.37116 -0.072,15.22028 -0.16,15.22028 -0.088,0 -0.16,-6.768 -0.16,-15.04 z m -0.82162,7.04 c 0,-4.312 0.0453,-6.076 0.10066,-3.92 0.0554,2.156 0.0554,5.684 0,7.84 -0.0554,2.156 -0.10066,0.392 -0.10066,-3.92 z m 40.08783,6.08 c -0.13959,-0.968 -0.20825,-7.736 -0.15259,-15.04 l 0.1012,-13.28 h 0.95259 0.95259 l 0.10477,2.99923 c 0.0648,1.85614 -0.0266,3.13064 -0.24,3.344 -0.24636,0.24636 -0.36265,-0.60975 -0.40741,-2.99923 l -0.0626,-3.344 -0.19472,3.36 -0.19472,3.36 -0.13789,-3.36 c -0.0758,-1.848 -0.21202,3.408 -0.30264,11.68 -0.10244,9.35156 -0.26074,14.37433 -0.41854,13.28 z m 0.87217,-6.08 c 0,-4.312 0.0453,-6.076 0.10066,-3.92 0.0554,2.156 0.0554,5.684 0,7.84 -0.0554,2.156 -0.10066,0.392 -0.10066,-3.92 z m -41.83337,-8.74599 c -0.30544,-0.79596 -0.22503,-5.93623 0.096,-6.13461 0.20434,-0.12629 0.31902,1.01749 0.31902,3.18171 0,3.28619 -0.077,3.83381 -0.41499,2.9529 z m 0.82652,-1.01401 c 0.003,-0.88 0.0645,-1.20202 0.1381,-0.7156 0.0736,0.48642 0.0716,1.20642 -0.004,1.6 -0.076,0.39358 -0.13614,-0.004 -0.13374,-0.8844 z m 40.96,0 c 0.003,-0.88 0.0645,-1.20202 0.1381,-0.7156 0.0735,0.48642 0.0716,1.20642 -0.004,1.6 -0.076,0.39358 -0.13614,-0.004 -0.13374,-0.8844 z m 0.54847,-1.92 c 0,-2.1837 0.11434,-3.3271 0.32,-3.2 0.17654,0.10911 0.32,1.5437 0.32,3.2 0,1.6563 -0.14346,3.09089 -0.32,3.2 -0.20566,0.1271 -0.32,-1.0163 -0.32,-3.2 z m -41.50411,-1.76 c 0,-0.968 0.06,-1.364 0.13331,-0.88 0.0733,0.484 0.0733,1.276 0,1.76 -0.0733,0.484 -0.13331,0.088 -0.13331,-0.88 z m 40.95564,0.16 c 0.003,-0.88 0.0645,-1.20202 0.1381,-0.7156 0.0735,0.48642 0.0716,1.20642 -0.004,1.6 -0.076,0.39358 -0.13614,-0.004 -0.13374,-0.8844 z m -54.17153,-4.62111 c 0,-0.16562 0.144,-0.39012 0.32,-0.49889 0.176,-0.10877 0.32,0.0267 0.32,0.30111 0,0.27439 -0.144,0.49889 -0.32,0.49889 -0.176,0 -0.32,-0.1355 -0.32,-0.30111 z m 15.62167,44.10902 c -0.54857,-2.43556 -1.54167,-3.09611 -1.54167,-1.02542 0,0.84618 0.24365,1.4368 0.85667,2.07666 0.47117,0.4918 0.90561,0.84523 0.96543,0.78542 0.0598,-0.0598 -0.0664,-0.88631 -0.28043,-1.83666 z m 37.11815,1.00505 c 0.41007,-0.55465 0.70018,-1.41647 0.70018,-2.08 0,-1.84772 -1.01814,-1.28614 -1.42694,0.78704 -0.12146,0.616 -0.29179,1.372 -0.37851,1.68 -0.24326,0.86396 0.32836,0.66379 1.10527,-0.38704 z m 27.472109,-0.73296 c -0.0888,-0.22 -0.16141,-0.04 -0.16141,0.4 0,0.44 0.0726,0.62 0.16141,0.4 0.0888,-0.22 0.0888,-0.58 0,-0.8 z m -92.785599,-1.59627 c -0.0765,-0.39805 -0.14208,-0.14773 -0.14563,0.55627 -0.004,0.704 0.0591,1.02968 0.13917,0.72373 0.0801,-0.30595 0.083,-0.88195 0.006,-1.28 z m 77.11227,-1.58373 c -0.10215,-0.25527 -0.17798,-0.17945 -0.19333,0.19333 -0.0139,0.33734 0.0617,0.52634 0.16807,0.42 0.10633,-0.10633 0.1177,-0.38233 0.0252,-0.61333 z m -61.66011,-0.80794 c -0.34868,-0.54378 -0.35771,-0.54308 -0.18265,0.0141 0.10129,0.32239 0.19553,0.75439 0.20943,0.96 0.0182,0.26981 0.0691,0.26588 0.18264,-0.0141 0.0866,-0.21337 -0.008,-0.64537 -0.20942,-0.96 z m 77.660109,-1.11206 c -0.10216,-0.25527 -0.17798,-0.17945 -0.19334,0.19333 -0.0139,0.33734 0.0617,0.52634 0.16807,0.42 0.10634,-0.10633 0.1177,-0.38233 0.0252,-0.61333 z m -93.759999,-7.36 c -0.10215,-0.25527 -0.17798,-0.17945 -0.19333,0.19333 -0.0139,0.33734 0.0617,0.52634 0.16807,0.42 0.10633,-0.10633 0.1177,-0.38233 0.0253,-0.61333 z m -0.32667,-4.18 c -0.0888,-0.22 -0.1614,-0.04 -0.1614,0.4 0,0.44 0.0726,0.62 0.1614,0.4 0.0888,-0.22 0.0888,-0.58 0,-0.8 z m 94.245599,-11.09221 c -0.5501,-0.35466 -0.76234,-1.69929 -0.54402,-3.44663 0.16551,-1.32473 0.32884,-1.70733 0.67254,-1.57544 0.26991,0.10357 0.45395,-0.0241 0.45395,-0.31492 0,-0.64615 -2.60979,-3.39977 -6.56,-6.92153 l -3.2,-2.85291 -0.21628,1.38182 c -0.48086,3.07219 -0.31966,4.64892 0.57307,5.60533 1.82497,1.95517 5.90438,7.67271 7.37185,10.33209 l 1.55136,2.81143 0.0944,-2.41573 c 0.0519,-1.32865 -0.0367,-2.50023 -0.19687,-2.60351 z m 0.7944,-1.06779 c -0.0888,-0.22 -0.16141,-0.04 -0.16141,0.4 0,0.44 0.0726,0.62 0.16141,0.4 0.0888,-0.22 0.0888,-0.58 0,-0.8 z m -98.562319,-8.7706 c -0.11528,-2.40382 -0.20961,-5.59582 -0.20961,-7.09333 0,-1.4975 -0.09,-2.63278 -0.19991,-2.52283 -0.10995,0.10996 -0.2251,1.86191 -0.25589,3.89323 -0.0586,3.86438 -0.56674,5.52444 -0.9666,3.15767 -0.32586,-1.92875 -0.80012,-2.43503 -0.84695,-0.90414 -0.0215,0.704 -0.0935,2.54788 -0.15997,4.09752 l -0.12081,2.81752 1.03507,0.44996 c 1.98153,0.86139 1.95562,0.91992 1.72467,-3.8956 z m 2.21521,-0.88642 c -0.20213,-5.68875 -0.83909,-34.98997 -0.9222,-42.42298 -0.062,-5.54217 -0.0701,-5.60106 -0.78262,-5.70226 l -0.72,-0.10225 0.008,8.58225 c 0.004,4.72024 0.21681,16.43026 0.47192,26.02226 0.25512,9.592 0.46748,17.76091 0.47192,18.15314 0.007,0.6469 0.0835,0.67876 0.82049,0.34298 l 0.8124,-0.37016 z m 101.115939,4.78897 1.1202,-0.46805 -0.0423,-3.85275 c -0.0514,-4.67883 -0.42689,-5.35019 -1.10711,-1.97952 -0.43442,2.15264 -0.89403,0.44986 -0.92777,-3.43721 -0.0183,-2.10682 -0.13911,-3.93645 -0.2685,-4.06583 -0.12939,-0.12939 -0.23525,1.27814 -0.23525,3.12784 0,1.8497 -0.0941,5.1137 -0.20918,7.25333 -0.22944,4.26718 -0.25027,4.2245 1.66994,3.42219 z m -2.29474,-4.25195 c 0.29434,-6.2248 0.76804,-23.49886 1.01792,-37.12 l 0.21281,-11.6 h -0.79891 -0.79892 l -0.21583,11.76 c -0.21584,11.76052 -0.71051,30.73671 -0.97364,37.35032 -0.13896,3.49271 -0.0158,3.99106 0.98953,4.00478 0.23821,0.003 0.42898,-1.4754 0.56704,-4.3951 z m -2.15409,2.72 c -0.0888,-0.22 -0.16141,-0.04 -0.16141,0.4 0,0.44 0.0726,0.62 0.16141,0.4 0.0888,-0.22 0.0888,-0.58 0,-0.8 z m -92.651149,-2.53851 c 1.64957,-1.61617 4.07922,-3.79424 5.39922,-4.84014 1.32,-1.04589 2.544,-2.13557 2.72,-2.42149 0.20409,-0.33155 0.29006,-5.67794 0.23735,-14.75986 -0.097,-16.70828 -0.33225,-23.68 -0.79912,-23.68 -0.21801,0 -0.26022,1.16271 -0.12489,3.44 0.27187,4.57476 0.32228,33.06812 0.0596,33.68 -0.11334,0.264 -0.94437,1.056 -1.84674,1.76 -3.02567,2.36053 -8.45461,7.94601 -8.63112,8.88 -0.0915,0.484 -0.13193,0.88 -0.0899,0.88 0.042,0 1.42605,-1.32233 3.07562,-2.93851 z m 89.020149,-1.78167 c -1.72751,-1.71983 -4.13523,-4.01253 -5.35049,-5.0949 l -2.20956,-1.96793 0.23006,-18.6685 c 0.15388,-12.48709 0.12374,-18.56253 -0.091,-18.34849 -0.36048,0.35928 -0.91071,36.63691 -0.57591,37.97086 0.12483,0.49735 1.69714,2.08284 4.1288,4.16339 2.15995,1.84809 4.57519,4.06791 5.36719,4.93295 1.30152,1.42155 1.44971,1.50389 1.54093,0.85619 0.0768,-0.54544 -0.64933,-1.46352 -3.04,-3.84357 z m 4.07034,-6.67775 c 0.36469,-10.43467 0.76744,-40.32752 0.54058,-40.12207 -0.0972,0.088 -0.26965,5.776 -0.38327,12.64 -0.4031,24.35009 -0.76622,35.40029 -1.18152,35.95572 -0.36176,0.48383 -0.34811,0.48432 0.17697,0.006 0.50051,-0.45561 0.60246,-1.47601 0.84724,-8.48 z m -96.292529,4.96949 c -0.0459,-1.59111 -0.13746,-3.17338 -0.20348,-3.51617 -0.13619,-0.70719 -0.63526,-29.66098 -0.63526,-36.85509 0,-2.59583 -0.108,-4.71983 -0.24,-4.72 -0.47769,-6.4e-4 -0.0401,33.4615 0.58502,44.74019 0.23656,4.26786 0.61446,4.53657 0.49372,0.35107 z m 4.12126,-0.19819 c 0,-0.24028 -0.2873,0.0138 -1.61337,1.42663 l -1.42663,1.52 1.52,-1.42663 c 0.836,-0.78464 1.52,-1.46864 1.52,-1.52 z m 90.239999,2.6946 c 0,-0.0506 -0.756,-0.80662 -1.68,-1.68 l -1.68,-1.58797 1.58797,1.68 c 1.47557,1.56108 1.77203,1.82675 1.77203,1.58797 z m -91.822769,-2.01908 c 0.60652,-0.63311 2.54277,-2.31118 4.30277,-3.72904 3.33537,-2.68699 3.65833,-3.08895 3.43221,-4.27182 -0.12552,-0.6566 -0.36635,-0.73205 -2.90454,-0.90998 -1.52222,-0.10671 -3.68874,-0.27614 -4.81448,-0.37652 l -2.04682,-0.1825 0.20329,1.23049 c 0.11182,0.67676 0.20488,3.06648 0.20682,5.31048 0.002,2.244 0.11927,4.08 0.26075,4.08 0.14147,0 0.75347,-0.518 1.36,-1.15111 z m 92.177219,-1.00889 c 0.0189,-1.188 0.0916,-3.56808 0.16145,-5.28906 l 0.12701,-3.12906 -2.00145,0.16473 c -1.1008,0.0906 -3.26146,0.2516 -4.80146,0.35779 l -2.8,0.19305 0.0149,1.17128 c 0.0139,1.08945 0.21525,1.32709 2.88224,3.4019 1.57701,1.22685 3.55028,2.91572 4.38505,3.75304 0.83477,0.83733 1.62577,1.52554 1.75777,1.52937 0.132,0.004 0.2555,-0.96504 0.27444,-2.15304 z m -88.994449,-0.88 c 0.41336,-0.44 0.67956,-0.8 0.59156,-0.8 -0.088,0 -0.4982,0.36 -0.91156,0.8 -0.41336,0.44 -0.67956,0.8 -0.59156,0.8 0.088,0 0.4982,-0.36 0.91156,-0.8 z m -9.77498,-0.9273 c -0.11893,-0.63399 -0.35566,-1.1527 -0.52606,-1.1527 -0.28865,0 -0.0747,1.72292 0.29072,2.34129 0.3206,0.54251 0.44358,-0.0786 0.23534,-1.18859 z m 94.254979,0.9769 c 0,-0.0607 -0.324,-0.38473 -0.72,-0.72 l -0.72,-0.6096 0.6096,0.72 c 0.57287,0.67662 0.8304,0.86568 0.8304,0.6096 z m 9.92437,-0.2896 c 0.003,-0.22 0.0912,-0.724 0.19732,-1.12 0.10661,-0.39782 0.0487,-0.72 -0.12936,-0.72 -0.17727,0 -0.38115,0.504 -0.45306,1.12 -0.0719,0.616 -0.0157,1.12 0.12499,1.12 0.14066,0 0.2577,-0.18 0.26011,-0.4 z M 16.306881,184.86444 c 0.10954,-0.17724 -0.026,-0.40865 -0.30112,-0.51424 -0.37541,-0.14406 -0.51467,-0.72256 -0.55796,-2.31774 -0.0523,-1.92786 -0.0691,-1.97689 -0.18076,-0.52661 -0.20288,2.63585 0.36096,4.45703 1.03984,3.35859 z M 121.58993,184.1467 c 0.10639,-0.572 0.14066,-1.976 0.0761,-3.12 -0.1137,-2.01639 -0.11917,-1.99896 -0.17894,0.57004 -0.0469,2.0148 -0.17628,2.69403 -0.53982,2.83353 -0.26299,0.10092 -0.39849,0.3124 -0.30112,0.46996 0.35718,0.57793 0.75518,0.26015 0.94373,-0.75353 z m -1.21062,-5.12965 c -0.0671,-0.7427 -0.12122,-0.0543 -0.12024,1.52965 9.6e-4,1.584 0.0559,2.19165 0.12202,1.35035 0.0661,-0.84132 0.0653,-2.13732 -0.002,-2.88 z m -103.679109,0.33811 c -0.0676,-0.75266 -0.12386,-0.21646 -0.12502,1.19154 -0.001,1.408 0.0541,2.0238 0.12291,1.36846 0.0688,-0.65535 0.0697,-1.80735 0.002,-2.56 z m 14.16528,0.73701 c 0,-0.29347 -1.48368,-0.47483 -6.8,-0.83118 -1.8648,-0.12499 -2.8,-0.0752 -2.8,0.14902 0,0.18518 0.18,0.35433 0.4,0.3759 0.59715,0.0585 6.9622,0.48531 8.16,0.54712 0.572,0.0295 1.04,-0.0789 1.04,-0.24086 z m 83.439999,-0.22003 c 0.748,-0.0906 1.36,-0.31212 1.36,-0.49235 0,-0.21216 -0.87436,-0.25902 -2.48,-0.13289 -1.364,0.10713 -3.524,0.27571 -4.8,0.3746 -3.67628,0.28492 -2.73252,0.77972 1.12,0.5872 1.892,-0.0946 4.052,-0.246 4.8,-0.33656 z m -83.292079,-14.6054 c -0.12319,-7.612 -0.23086,-14.02328 -0.23928,-14.24729 -0.0205,-0.54526 -0.64256,-0.64178 -5.46125,-0.8473 l -4.11261,-0.17541 0.23142,14.155 c 0.12728,7.78525 0.25844,14.18748 0.29146,14.22719 0.0486,0.0585 5.4674,0.48002 8.76828,0.68214 l 0.74594,0.0457 z m 81.212079,13.3389 3.12,-0.19863 0.003,-3.25013 c 0.002,-1.78758 0.0959,-8.1882 0.2095,-14.22362 l 0.20653,-10.97347 -3.80951,0.18878 c -2.09522,0.10383 -4.27037,0.25908 -4.83366,0.345 l -1.02415,0.15622 -0.0172,10.94848 c -0.009,6.02166 -0.11066,12.43759 -0.22486,14.25762 l -0.20764,3.30915 1.72902,-0.18039 c 0.95095,-0.0992 3.13301,-0.26977 4.84901,-0.37901 z m 8.5689,-9.25696 c 0.16048,-3.69707 0.29612,-11.09557 0.30144,-16.44112 0.008,-8.47486 -0.05,-9.66966 -0.45644,-9.33236 -0.39277,0.32598 -0.46824,2.30788 -0.47977,12.59918 -0.008,6.7168 -0.0892,14.30036 -0.1814,16.85236 -0.1259,3.48293 -0.0814,4.44099 0.17834,3.84194 0.19033,-0.43893 0.47736,-3.82293 0.63783,-7.52 z M 16.895501,160.62674 c -0.14914,-13.48586 -0.26546,-16.64698 -0.62658,-17.02857 -0.37843,-0.39988 -0.43983,0.98403 -0.4188,9.44 0.0218,8.75502 0.39685,20.27577 0.73412,22.54857 0.0653,0.44 0.13728,0.98 0.15998,1.2 0.0227,0.22 0.10722,0.4 0.18784,0.4 0.0806,0 0.0642,-7.452 -0.0366,-16.56 z m 13.06381,-10.80332 c 0.36058,-0.13818 0.46422,-1.1319 0.28932,-2.77399 -0.0127,-0.11953 -0.85115,-0.37779 -1.86315,-0.57392 -1.012,-0.19614 -3.01308,-0.71034 -4.44684,-1.14269 -1.43376,-0.43234 -2.69376,-0.78608 -2.8,-0.78608 -0.10624,0 -0.19316,1.0658 -0.19316,2.36843 v 2.36843 l 3.76,0.20965 c 3.25551,0.18151 4.55546,0.30578 4.77383,0.45637 0.0296,0.0204 0.24561,-0.0364 0.48,-0.1262 z m 83.386169,-0.36603 2.64,-0.20551 v -2.38681 c 0,-1.82474 -0.0978,-2.34928 -0.41526,-2.22745 -0.87851,0.33711 -5.26922,1.48031 -7.02474,1.82901 l -1.84,0.36549 v 1.41731 1.41731 l 2,-0.002 c 1.1,-9.6e-4 3.188,-0.0944 4.64,-0.20743 z m -81.519999,-7.10358 c 0,-7.33621 -0.66785,-21.67695 -1.13478,-24.36707 -0.25967,-1.496 -0.83028,-4.016 -1.26803,-5.6 -0.43775,-1.584 -1.86267,-7.128 -3.16648,-12.32 -1.30382,-5.192003 -2.6939,-10.304003 -3.08907,-11.360003 -0.80695,-2.156349 -2.76112,-4.352458 -3.22374,-3.622838 -0.41974,0.662003 -0.32368,1.542838 0.16826,1.542838 0.83706,0 2.3276,1.756864 2.98641,3.52 0.80861,2.16407 2.20071,8.233392 1.94671,8.487386 -0.10196,0.101961 -0.87857,-0.254224 -1.7258,-0.791527 -0.84724,-0.537299 -1.65695,-0.860387 -1.79936,-0.717974 -0.14241,0.142413 -0.22185,9.380288 -0.17653,20.528618 l 0.0824,20.26968 1.92,1.06579 c 2.97025,1.6488 6.97664,3.18812 7.12663,2.73817 0.0697,-0.20908 0.25871,-0.38014 0.42004,-0.38014 0.16133,0 0.29333,1.08 0.29333,2.4 0,1.38667 0.13512,2.4 0.32,2.4 0.19534,0 0.32,-1.47764 0.32,-3.79293 z m -1.39531,-10.84707 c -0.20655,-7.8174 -0.7239,-13.3987 -1.50533,-16.24 -0.5626,-2.04561 -0.71532,-3.29663 -0.32831,-2.68944 0.62444,0.97971 1.59694,6.24069 1.9168,10.36944 0.50805,6.55778 0.77244,16.8 0.43367,16.8 -0.17209,0 -0.39156,-3.49898 -0.51683,-8.24 z m -2.73015,-21.0877 c -1.14594,-4.31151 -2.59454,-10.25996 -2.59454,-10.654063 0,-0.279866 0.10771,-0.34472 0.26945,-0.16224 0.3772,0.425573 3.05683,11.644393 2.83441,11.866813 -0.1,0.1 -0.32918,-0.37274 -0.50932,-1.05051 z m 78.045459,33.34659 c 0,-1.30962 0.144,-2.47012 0.32,-2.57889 0.176,-0.10877 0.32,0.0267 0.32,0.30111 0,0.27439 0.15503,0.49889 0.3445,0.49889 0.53243,0 5.72323,-2.26952 7.3355,-3.20722 l 1.44,-0.83751 0.0823,-20.53764 c 0.0453,-11.29569 0.002,-20.537633 -0.0959,-20.537633 -0.33618,0 -2.22642,1.037142 -2.78842,1.529958 -0.30908,0.271034 -0.65934,0.395408 -0.77836,0.276394 -0.30547,-0.305478 1.63081,-7.93511 2.42864,-9.569686 0.3642,-0.746167 1.16832,-1.699229 1.78693,-2.117914 1.07754,-0.729296 1.46161,-1.712787 0.82302,-2.107466 -0.54007,-0.333776 -2.50171,1.986896 -3.15211,3.729021 -0.34901,0.934832 -1.30756,4.435693 -2.13011,7.779693 -0.82256,3.344 -2.34611,9.320003 -3.38569,13.280003 -1.03957,3.96 -2.04561,8.424 -2.23566,9.92 -0.19004,1.496 -0.47683,7.544 -0.63731,13.44 -0.37252,13.68588 -0.37263,13.12 0.003,13.12 0.18466,0 0.32,-1.00704 0.32,-2.38111 z m 0.37623,-8.49889 c -0.0895,-10.08493 0.91896,-20.44497 2.21158,-22.72 0.47479,-0.83564 0.3499,0.31198 -0.31826,2.92445 -0.84028,3.28548 -1.31376,8.37493 -1.60344,17.23555 -0.2314,7.07786 -0.24845,7.22837 -0.28988,2.56 z m 2.50973,-23.856 c 0.0108,-0.54735 2.85478,-11.751413 3.02659,-11.923219 0.38846,-0.388461 0.0917,1.218669 -1.15713,6.265799 -0.72852,2.94438 -1.44852,5.49022 -1.6,5.65742 -0.17395,0.192 -0.27322,0.192 -0.26946,0 z m -78.218389,32.96402 -0.0276,-1.45198 -3.18595,-1.28227 c -1.75228,-0.70525 -3.94828,-1.71843 -4.88,-2.2515 l -1.69405,-0.96924 v 2.25611 c 0,2.79792 0.12304,2.89773 5.1647,4.18997 4.83842,1.24015 4.6561,1.25952 4.62287,-0.49109 z m 79.492429,0.80201 c 3.60278,-0.85497 5.86659,-1.60425 6.1551,-2.03722 0.12931,-0.19405 0.23731,-1.30966 0.24,-2.47915 l 0.005,-2.12635 -2.64,1.35337 c -1.452,0.74434 -3.612,1.69991 -4.8,2.12348 l -2.16,0.77012 v 1.52286 c 0,0.83757 0.108,1.52185 0.24,1.52062 0.132,-0.001 1.464,-0.29271 2.96,-0.64773 z M 19.637891,95.442737 c -0.17663,-0.183629 -0.271,9.255893 -0.23835,23.840003 l 0.0541,24.144 0.23835,-23.84 c 0.14311,-14.31405 0.12151,-23.961475 -0.0541,-24.144003 z m 98.125049,31.344003 c -0.0619,-7.216 -0.12718,-17.2168 -0.14502,-22.224 -0.0186,-5.231145 -0.1517,-8.974681 -0.3128,-8.800003 -0.15866,0.172042 -0.201,10.582953 -0.0975,23.984003 0.10055,13.024 0.29197,22.888 0.42539,21.92 0.13341,-0.968 0.19191,-7.664 0.12998,-14.88 z m 2.03646,-2.19731 c -0.0307,-21.49564 -0.42122,-28.888901 -1.54579,-29.261061 -0.38205,-0.126438 -0.41913,0.606698 -0.24,4.745291 0.11653,2.69216 0.21187,13.49197 0.21187,23.99958 v 19.10475 l 0.8,-0.15293 0.8,-0.15293 -0.0261,-18.2827 z M 18.960151,119.10595 c 0.0615,-15.49414 -0.0156,-23.839213 -0.2204,-23.839213 -0.17328,0 -0.4063,0.684 -0.51782,1.52 -0.11152,0.836 -0.33086,1.88 -0.48743,2.32 -0.33186,0.932613 -0.75518,42.050633 -0.44393,43.120003 0.13289,0.4566 0.4593,0.71971 0.89223,0.71921 l 0.68268,-7.9e-4 z m -2.36229,22.14975 c -0.0435,-0.38993 -0.11234,-2.58096 -0.15304,-4.86896 l -0.074,-4.16 -0.29148,4.76021 c -0.285,4.65459 -0.18218,6.23935 0.34907,5.37978 0.13667,-0.22114 0.21292,-0.7211 0.16945,-1.11103 z m 104.372759,-3.81328 c -0.0859,-2.64736 -0.23469,-4.89189 -0.33066,-4.98786 -0.096,-0.096 -0.17448,2.16201 -0.17448,5.01773 0,3.49152 0.1083,5.12529 0.33065,4.98786 0.21527,-0.13304 0.27616,-1.88399 0.17449,-5.01773 z M 15.369561,135.02415 c -0.3476,-0.3476 -0.44732,0.0837 -0.24106,1.04259 l 0.2065,0.96 0.10932,-0.90925 c 0.0601,-0.50009 0.0265,-0.99209 -0.0748,-1.09334 z m 106.496999,0.80259 c 0.12533,-0.52241 0.0786,-0.88 -0.11498,-0.88 -0.17936,0 -0.3261,0.456 -0.3261,1.01333 0,1.16521 0.13969,1.12299 0.44108,-0.13333 z m -106.361079,-2.16 c 0,-0.176 -0.144,-0.32 -0.32,-0.32 -0.17814,0 -0.34778,-1.02845 -0.38267,-2.32 l -0.0627,-2.32 -0.11305,2.20825 c -0.0622,1.21454 -0.0385,2.40254 0.0526,2.64 0.19183,0.4999 0.82577,0.58569 0.82577,0.11175 z m 106.762659,-0.069 c 0.26457,-0.42809 0.20448,-5.07051 -0.0692,-5.34417 -0.094,-0.094 -0.1407,0.97026 -0.10379,2.36501 0.0445,1.68215 -0.0569,2.57725 -0.30128,2.65871 -0.44157,0.14719 -0.4949,0.70947 -0.0673,0.70947 0.16562,0 0.40931,-0.17506 0.54155,-0.38902 z m -106.208349,-5.451 c -0.0674,-0.748 -0.1225,-0.136 -0.1225,1.36 0,1.496 0.0551,2.108 0.1225,1.36 0.0674,-0.748 0.0674,-1.972 0,-2.72 z m 104.960409,0.008 c -0.0676,-0.75265 -0.12386,-0.21646 -0.12502,1.19154 -10e-4,1.408 0.0542,2.02381 0.1229,1.36846 0.0688,-0.65535 0.0697,-1.80735 0.002,-2.56 z m -105.542109,-2.648 c 0.01,-0.176 -0.122,-0.104 -0.29261,0.16 -0.17061,0.264 -0.30228,0.696 -0.29261,0.96 0.0186,0.50683 0.5519,-0.51385 0.58522,-1.12 z m 106.265879,0.25206 c -0.34868,-0.54378 -0.35771,-0.54308 -0.18265,0.0141 0.10129,0.32239 0.19553,0.75439 0.20942,0.96 0.0182,0.26981 0.0691,0.26588 0.18265,-0.0141 0.0866,-0.21337 -0.008,-0.64537 -0.20942,-0.96 z M 16.747681,108.87817 c 0.0331,-7.83091 -0.0203,-8.890053 -0.4276,-8.48 -0.38515,0.38776 -0.48172,2.35877 -0.56,11.42878 -0.052,6.02812 0.0177,10.96012 0.15488,10.96 0.13721,-1.1e-4 0.22714,0.61179 0.19984,1.35979 -0.0273,0.748 -0.007,1.576 0.0454,1.84 0.21459,1.08399 0.55217,-8.74691 0.58749,-17.10857 z M 120.9482,124.12365 c -0.10465,-0.41697 -0.0761,-0.92435 0.0635,-1.12752 0.13958,-0.20316 0.21081,-5.36066 0.15828,-11.4611 -0.0788,-9.14875 -0.17399,-11.12183 -0.54357,-11.26365 -0.37307,-0.14316 -0.45039,0.74926 -0.46192,5.33171 -0.0241,9.57175 0.36265,20.93129 0.68312,20.06498 0.15998,-0.43246 0.20524,-1.12745 0.10059,-1.54442 z M 35.930641,111.2865 c 8.3971,-2.12428 17.45902,-3.20498 28.85484,-3.44113 8.48273,-0.17579 17.28547,0.17416 21.64023,0.8603 1.03387,0.16289 2.74377,0.38331 3.79977,0.48981 2.16007,0.21784 8.80843,1.53411 12.077539,2.39116 l 2.15754,0.56564 0.6621,-2.28277 c 0.36416,-1.25553 0.79213,-2.71477 0.95105,-3.24277 1.38178,-4.59099 5.88783,-24.003625 6.87501,-29.618429 l 0.4592,-2.611788 -0.97764,-1.420951 c -2.75894,-4.009981 -8.44367,-6.748109 -19.798489,-9.536214 -14.59588,-3.58393 -33.13441,-3.639623 -47.68631,-0.143261 -10.61938,2.551501 -15.60674,4.680534 -19.06462,8.138426 -2.31266,2.312656 -2.43046,2.739977 -1.72395,6.253411 2.26219,11.2496 4.5578,20.894105 7.25358,30.474346 0.88025,3.12823 1.26024,4.05417 1.60887,3.92039 0.25104,-0.0963 1.56111,-0.45461 2.91128,-0.79617 z M 9.4254814,102.62674 c 0.7763796,-0.24864 0.7716496,-0.25603 -0.16,-0.25024 -0.528,0.003 -1.392,0.11589 -1.92,0.25024 l -0.96,0.24428 1.12,0.006 c 0.616,0.003 1.48,-0.10933 1.92,-0.25024 z m 120.9333286,0.19382 c -0.0733,-0.0694 -1.13571,-0.28059 -2.36085,-0.46931 -2.46836,-0.38023 -5.71693,-1.83384 -7.39912,-3.31083 -0.60135,-0.52799 -1.09336,-0.825475 -1.09336,-0.661078 0,0.800845 4.47498,3.360648 7.12021,4.072958 1.54645,0.41641 4.04439,0.66283 3.73312,0.36826 z M 13.798371,101.04194 c 1.38985,-0.69564 2.88252,-1.661072 3.31705,-2.145395 l 0.79006,-0.880592 -0.8,0.548803 c -2.67063,1.832064 -3.53903,2.340284 -5.12,2.996394 -0.968,0.40172 -1.52467,0.73382 -1.23705,0.73799 0.28762,0.004 1.66009,-0.56156 3.04994,-1.2572 z m -3.8284996,0.46616 c 2.4496696,-0.63187 5.4369596,-2.210192 6.7677396,-3.575699 1.06752,-1.095376 1.07165,-1.111616 0.96,-3.7764 -0.0617,-1.471962 -0.20928,-2.77336 -0.32801,-2.891997 -0.30097,-0.30071 -1.23718,0.0534 -2.18412,0.826119 -0.79266,0.646816 -0.78752,0.64671 0.56,-0.01181 0.748,-0.365514 1.36,-0.517658 1.36,-0.33808 0,0.179574 -0.15164,0.326502 -0.33697,0.326502 -0.18534,0 -0.86677,0.36 -1.51429,0.8 -1.24892,0.848666 -1.848,1.028941 -1.48901,0.448074 0.15287,-0.247344 0.0158,-0.243997 -0.46111,0.01126 -0.77796,0.416352 -0.91503,0.731299 -0.19862,0.456387 1.07558,-0.412743 0.3413,0.24103 -2.08512,1.85648 -2.0735696,1.380537 -2.7174396,2.011123 -3.3599996,3.290633 -0.93777,1.867381 -1.00144,2.636261 -0.23488,2.836591 0.308,0.0805 0.58898,0.16305 0.62439,0.18346 0.0354,0.0204 0.89941,-0.17827 1.92,-0.44152 z m 119.5894386,0.2844 c 0.73402,-0.28167 0.62348,-1.26361 -0.34194,-3.037401 -0.72836,-1.338247 -1.43576,-1.942605 -5.01042,-4.280634 -4.85374,-3.174602 -5.02147,-3.169427 -5.02147,0.15496 0,2.077635 0.0481,2.211642 1.2,3.345722 1.44355,1.421174 3.71983,2.647973 6.32,3.406153 2.28566,0.66647 2.21511,0.6563 2.85383,0.4112 z M 23.392411,93.923329 c -1.13272,-4.239274 -1.31689,-4.629478 -2.27116,-4.811898 -0.45755,-0.08746 -0.93628,0.0016 -1.06384,0.198138 -0.12756,0.196442 -0.66393,0.60552 -1.19193,0.909059 -0.528,0.303539 -0.90167,0.735539 -0.83038,0.96 0.0713,0.224461 0.16389,1.056109 0.20578,1.848109 0.0747,1.412138 0.099,1.441952 1.2566,1.54088 0.87016,0.07437 1.13414,0.221562 1.00427,0.56 -0.0969,0.252515 -7e-4,0.470438 0.21378,0.484272 0.21447,0.01382 1.03795,0.422464 1.82995,0.908061 0.792,0.4856 1.48551,0.769747 1.54114,0.63144 0.0556,-0.138307 -0.25677,-1.590935 -0.69421,-3.228061 z m 93.011019,1.137098 c -0.12338,-0.321536 0.17345,-0.43369 1.14781,-0.43369 h 1.31424 v -1.76 c 0,-0.968 0.036,-1.841075 0.08,-1.940166 0.044,-0.09909 -0.352,-0.423088 -0.88,-0.72 -0.528,-0.296909 -1.06766,-0.706442 -1.19924,-0.910074 -0.27025,-0.418205 -1.55952,-0.1876 -1.91302,0.34217 -0.37333,0.559491 -2.16774,6.919923 -2.16774,7.683737 0,0.111805 0.85148,-0.253821 1.89219,-0.812502 1.22779,-0.659123 1.83375,-1.168064 1.72576,-1.449475 z m 5.98205,-2.487591 c 0,-0.264253 -2.27743,-1.535334 -2.44703,-1.365737 -0.0954,0.09535 0.38022,0.465411 1.05683,0.822358 1.37236,0.723994 1.3902,0.730963 1.3902,0.543379 z M 17.001191,87.188686 c -0.0389,-2.256515 -0.17611,-3.268413 -0.45571,-3.361751 -0.30392,-0.101459 -0.4,0.715911 -0.4,3.403092 0,2.928422 0.0784,3.50655 0.45571,3.36175 0.35795,-0.137357 0.44376,-0.867437 0.4,-3.403091 z m 103.784289,-0.12113 c 0,-3.396294 -0.0451,-3.681728 -0.51982,-3.287769 -0.43279,0.35918 -0.49423,0.920742 -0.36697,3.353747 0.13832,2.644358 0.34424,3.653203 0.74568,3.653203 0.0776,0 0.14111,-1.673632 0.14111,-3.719181 z M 19.278351,86.809511 c -0.0849,-2.069913 -0.15423,-2.271491 -0.81287,-2.36503 -0.69849,-0.0992 -0.72,-0.02054 -0.72,2.633139 v 2.735395 l 0.81287,-0.370364 c 0.77349,-0.352426 0.80836,-0.479975 0.72,-2.63314 z m 100.108819,2.297226 c -0.10612,-0.396 -0.19492,-1.630016 -0.19732,-2.742256 -0.004,-1.897469 -0.0476,-2.015946 -0.70519,-1.92 -0.64754,0.09448 -0.69846,0.271168 -0.66988,2.324694 0.0242,1.739658 0.15498,2.313149 0.60197,2.64 0.8436,0.616852 1.18802,0.509511 0.97042,-0.302438 z m -99.925279,-9.76 c 0.1092,-2.244 0.2887,-8.144048 0.3989,-13.111216 0.1102,-4.967168 0.31202,-10.151168 0.4485,-11.52 0.24277,-2.434957 0.24715,-2.411565 0.20217,1.081574 -0.0253,1.963696 0.062,3.503197 0.19402,3.421114 0.132,-0.08208 0.24,-1.724746 0.24,-3.650358 0,-2.14274 0.12534,-3.501114 0.32305,-3.501114 0.18667,0 0.25962,0.506579 0.1728,1.2 -0.22853,1.825341 -0.26627,9.376243 -0.048,9.59456 0.10566,0.105658 0.21404,-1.019894 0.24085,-2.501226 0.0268,-1.481334 0.0822,-2.837334 0.12309,-3.013334 0.0409,-0.176 0.091,-1.3928 0.11126,-2.704 0.0222,-1.430752 0.15244,-2.262445 0.32583,-2.08 0.16998,0.178845 0.17774,1.950784 0.0188,4.304 -0.14854,2.2 -0.37206,6.89943 -0.49669,10.443174 -0.22428,6.37681 -0.21953,6.44697 0.46116,6.811261 0.53694,0.287363 0.69608,0.277898 0.72569,-0.04318 0.10618,-1.151508 0.18912,-2.869754 0.23315,-4.830144 0.0269,-1.198388 0.15693,-2.112384 0.28893,-2.031101 0.132,0.08128 0.168,1.457987 0.08,3.059353 -0.088,1.601364 -0.088,2.906112 0,2.89944 0.088,-0.0067 0.54715,-0.522726 1.02034,-1.146787 1.86375,-2.457961 6.1842,-5.242435 11.48694,-7.403165 l 0.82729,-0.337097 0.21665,-21.130567 c 0.11916,-11.621813 0.30984,-21.596514 0.42374,-22.166003 l 0.20709,-1.035436 -3.10219,1.672341 c -7.02514,3.787147 -7.66431,4.518165 -8.1926,9.3698 -1.09682,10.072895 -2.56726,29.015253 -2.56726,33.071765 0,1.216986 -0.137,2.076346 -0.33102,2.076346 -0.20538,0 -0.26662,-0.576902 -0.16133,-1.52 0.0933,-0.836 0.31906,-4.4 0.50163,-7.92 0.38498,-7.422474 1.77992,-24.337462 2.25355,-27.326345 0.59567,-3.75912 1.06979,-4.223302 8.53717,-8.358273 2.82776,-1.565836 2.96,-1.687466 2.96,-2.722501 V 17.21618 l -1.52,0.706278 c -0.836,0.388452 -2.27816,1.173828 -3.2048,1.745278 -0.92665,0.571451 -1.74743,1.039001 -1.82396,1.039001 -0.28076,0 -3.23728,2.045592 -4.09124,2.830693 -0.484,0.444975 -0.88,0.649325 -0.88,0.454111 0,-0.440986 2.22002,-2.365346 3.42513,-2.96897 0.49218,-0.246527 1.11087,-0.616823 1.37487,-0.822881 0.264,-0.206057 1.704,-0.992592 3.2,-1.747855 3.71499,-1.875533 5.97706,-3.396867 6.17473,-4.152773 0.0909,-0.347779 0.0315,-0.632325 -0.13222,-0.632325 -0.59812,0 -9.46425,4.582416 -11.5675,5.978605 -3.4035,2.259334 -4.21142,3.706152 -5.17368,9.264966 -0.55609,3.212458 -1.31514,11.570499 -1.64601,18.124496 -0.1224,2.424435 -0.32475,4.471239 -0.44968,4.548448 -0.12493,0.07721 -0.15932,-1.330419 -0.0764,-3.128067 0.0829,-1.797645 0.0772,-3.196448 -0.0126,-3.108448 -0.0898,0.088 -0.24403,1.580234 -0.34271,3.31607 -0.0987,1.73584 -0.27282,3.24784 -0.38699,3.36 -0.11418,0.112164 -0.12331,-1.38007 -0.0203,-3.31607 0.103,-1.936 0.27176,-5.32 0.37503,-7.52 0.10326,-2.2 0.38022,-5.583174 0.61546,-7.518163 0.32204,-2.649081 0.33636,-3.574613 0.058,-3.746676 -0.20336,-0.125681 -0.46374,-0.126507 -0.57863,-0.0018 -0.20329,0.220589 -1.04548,7.084314 -1.38244,11.266663 -0.35498,4.40593 -1.40265,29.18304 -1.55943,36.88 -0.10892,5.34719 -0.10749,5.36 0.59705,5.36 0.68099,0 0.71332,-0.145776 0.90476,-4.08 z m 2.89533,-31.76 c 0.49869,-9.058435 1.33215,-16.952934 1.84123,-17.44 0.23088,-0.220899 0.27625,-0.0227 0.1465,0.64 -0.41968,2.143533 -1.20672,10.436662 -1.65494,17.438323 -0.10698,1.671079 -0.27517,3.111079 -0.37375,3.2 -0.0986,0.08892 -0.0802,-1.638323 0.041,-3.838323 z m 1.93219,-19.36 c 0.12585,-0.704 0.5062,-1.856 0.84521,-2.56 0.60981,-1.266372 0.60055,-1.143826 -0.13706,1.813549 -0.47296,1.896288 -1.01605,2.468752 -0.70815,0.746451 z m 94.891789,53.68 c -0.004,-1.513216 -0.47543,-14.510653 -0.78012,-21.52 -0.088,-2.024 -0.24363,-5.768 -0.3459,-8.32 -0.39212,-9.785411 -1.55919,-22.4 -2.07238,-22.4 -0.72762,0 -0.84434,0.966531 -0.46653,3.863395 0.41649,3.193466 0.69738,7.591213 0.91824,14.376605 0.12164,3.736912 0.11181,3.821098 -0.14934,1.28 -0.15375,-1.496 -0.50205,-6.156307 -0.774,-10.356237 -0.27195,-4.199933 -0.64004,-7.871932 -0.81798,-8.160001 -0.23587,-0.381829 -0.27873,-0.133538 -0.15818,0.916238 0.27939,2.432915 0.77844,8.631069 0.9662,12 0.0981,1.76 0.25946,4.244 0.35861,5.52 0.10443,1.344093 0.0553,2.32 -0.11694,2.32 -0.16346,0 -0.39442,-2.196 -0.51325,-4.88 -0.46948,-10.604496 -1.51802,-19.075959 -2.77785,-22.443152 -1.01962,-2.72518 -3.02615,-4.277615 -10.41094,-8.054824 -2.561379,-1.310113 -4.791679,-2.382024 -4.956209,-2.382024 -0.58433,0 -0.2862,0.852664 0.59245,1.694466 0.49038,0.469812 1.82238,1.302379 2.959999,1.850149 7.17215,3.453426 10.76498,6.313051 11.64195,9.266147 0.55293,1.861923 0.70103,3.612547 0.20212,2.389238 -0.14356,-0.352 -0.49866,-1.460027 -0.78911,-2.462282 -0.41516,-1.432585 -0.84195,-2.098546 -1.99572,-3.114139 -1.4751,-1.298435 -4.67994,-3.260449 -8.29857,-5.080421 l -1.947729,-0.9796 0.0387,1.113767 c 0.0367,1.057916 0.17452,1.187011 2.747729,2.574407 3.29348,1.775747 6.68496,3.973145 7.38859,4.787193 1.1275,1.30443 1.52217,4.2351 3.01136,22.361075 0.31332,3.813709 1.10636,16.662192 1.08631,17.6 -0.0176,0.821347 -0.0596,0.867565 -0.29107,0.32 -0.1488,-0.352 -0.43043,-3.52 -0.62585,-7.04 -0.73283,-13.200342 -1.89973,-27.596494 -2.46411,-30.4 -0.48771,-2.422662 -1.71635,-3.52332 -7.41595,-6.643488 l -3.299759,-1.806414 0.18456,17.344952 c 0.10152,9.539721 0.268079,19.509046 0.370139,22.154057 l 0.18557,4.809104 2.18266,0.898023 c 3.57301,1.470057 6.98079,3.650739 9.10121,5.82399 l 1.99304,2.042691 -0.0838,-3.111459 -0.0838,-3.111456 0.37502,3.750954 c 0.40851,4.086067 0.6308,4.331814 1.8158,2.007504 0.60544,-1.187552 0.61821,-1.569492 0.31487,-9.418103 -0.17389,-4.499193 -0.37062,-8.79463 -0.43718,-9.545411 -0.0665,-0.750781 0.006,-1.44328 0.16026,-1.538886 0.1553,-0.09598 0.28126,1.434899 0.28126,3.41839 0,1.975722 0.10311,3.48911 0.22913,3.363091 0.12602,-0.126022 0.21325,-1.698022 0.19385,-3.493334 l -0.0354,-3.264205 0.26334,2.4 c 0.25073,2.285117 0.95799,22.079194 0.95186,26.64 -0.003,2.09144 0.0225,2.16 0.7971,2.16 0.74165,0 0.79969,-0.110858 0.79572,-1.52 z m -3.94839,-16.307283 c -0.11838,-3.658995 -0.27706,-8.164717 -0.35263,-10.012717 l -0.13739,-3.36 0.28355,3.04 c 0.49684,5.326742 0.95008,16.457059 0.6811,16.726038 -0.14267,0.142669 -0.35625,-2.734329 -0.47463,-6.393321 z m -0.97984,-18.214439 c -0.12332,-2.089052 -0.27935,-4.374278 -0.34672,-5.078278 -0.0674,-0.704 -0.2089,-2.216 -0.31453,-3.36 -0.10562,-1.144 -0.38953,-3.592 -0.63089,-5.44 -0.41283,-3.160758 -0.41348,-3.864796 -0.003,-3.454527 0.45879,0.458799 2.10318,19.984565 1.74267,20.692805 -0.1227,0.241056 -0.324,-1.270944 -0.44733,-3.36 z M 16.958641,82.168027 c -0.11601,-0.187709 -0.36406,-0.34129 -0.55123,-0.34129 -0.21219,0 -0.18791,0.18361 0.0645,0.487734 0.4389,0.528832 0.83115,0.410816 0.48674,-0.146444 z M 120.6545,81.909092 c -0.22192,-0.221917 -0.82902,0.228976 -0.82902,0.615712 0,0.212192 0.18361,0.187914 0.48773,-0.06449 0.26826,-0.222631 0.42184,-0.470682 0.34129,-0.551226 z M 19.877411,80.786737 c -0.0888,-0.22 -0.1614,-0.04 -0.1614,0.4 0,0.44 0.0726,0.62 0.1614,0.4 0.0888,-0.22 0.0888,-0.58 0,-0.8 z m 0.41827,-1.68 c 0,-0.176 -0.13959,-0.104 -0.3102,0.16 -0.17061,0.264 -0.3102,0.624 -0.3102,0.8 0,0.176 0.13959,0.104 0.3102,-0.16 0.17061,-0.264 0.3102,-0.624 0.3102,-0.8 z m 96.861729,0.08 c -0.0888,-0.22 -0.16141,-0.04 -0.16141,0.4 0,0.44 0.0726,0.62 0.16141,0.4 0.0888,-0.22 0.0888,-0.58 0,-0.8 z m -100.117819,-5.04 -0.01,-1.12 -0.24428,0.96 c -0.13435,0.528 -0.24207,1.752 -0.23938,2.72 l 0.005,1.76 0.24921,-1.6 c 0.13706,-0.88 0.24479,-2.104 0.23938,-2.72 z m 103.337379,1.2 c -0.071,-0.572 -0.12907,-0.104 -0.12907,1.04 0,1.144 0.0581,1.612 0.12907,1.04 0.071,-0.572 0.071,-1.508 0,-2.08 z M 16.130201,70.855191 c 0.35482,-2.426348 0.78824,-4.678969 0.96317,-5.00582 0.48932,-0.914295 0.91077,-5.77354 1.29256,-14.902634 0.32339,-7.732922 0.9708,-15.953875 1.56824,-19.914017 0.21626,-1.433499 0.1562,-1.812012 -0.41807,-2.63447 -0.36884,-0.528249 -0.74262,-0.954974 -0.83062,-0.948278 -0.088,0.0067 -0.48105,0.41942 -0.87344,0.917164 -1.00799,1.278616 -1.9374,7.492875 -2.1566,14.419601 -0.0529,1.672 -0.19618,5.488 -0.31837,8.48 -0.34564,8.463766 -0.33468,25.971094 0.0153,24.48 0.062,-0.264 0.40298,-2.465197 0.7578,-4.891546 z M 121.86993,63.426737 c -0.0751,-5.456 -0.25461,-12.584 -0.39882,-15.84 -0.14421,-3.256 -0.2597,-6.352 -0.25663,-6.88 0.008,-1.436272 -0.70512,-8.161258 -1.06985,-10.084485 -0.20187,-1.064446 -0.61581,-1.979447 -1.12654,-2.49018 -0.78574,-0.785732 -0.82004,-0.791005 -1.27772,-0.196373 -0.77785,1.010622 -0.89316,1.980812 -0.52216,4.393384 0.62174,4.043075 1.19612,12.29262 1.80871,25.977654 0.18777,4.194467 0.35819,5.454506 1.21189,8.96 0.25717,1.056 0.66356,3.504 0.90309,5.44 0.3972,3.210349 0.45438,3.393325 0.65008,2.08 0.11801,-0.792 0.15309,-5.904 0.078,-11.36 z m -100.657289,2.88 c -0.048,-3.564253 -0.19667,-3.046125 -0.33577,1.169795 -0.0503,1.523386 0.0144,2.603386 0.14371,2.4 0.12931,-0.203389 0.21573,-1.809795 0.19206,-3.569795 z m -0.67524,-1.194269 c -0.0712,-0.575152 -0.13096,-0.181731 -0.13276,0.874269 -0.002,1.056 0.0565,1.526579 0.12949,1.045731 0.073,-0.480848 0.0745,-1.344848 0.003,-1.92 z m 96.005009,-3.525731 c -0.0625,-1.1 -0.11361,-0.2 -0.11361,2 0,2.2 0.0511,3.1 0.11361,2 0.0625,-1.1 0.0625,-2.9 0,-4 z m -78.104999,1.28 c -0.0888,-0.22 -0.1614,-0.04 -0.1614,0.4 0,0.44 0.0726,0.62 0.1614,0.4 0.0888,-0.22 0.0888,-0.58 0,-0.8 z m 61.11467,-13.76 c -0.27637,-19.347686 -0.56726,-29.36 -0.85301,-29.36 -0.12699,0 -0.19193,0.612 -0.14433,1.36 0.0476,0.748 0.1773,9.784 0.2882,20.08 0.11091,10.296 0.28081,19.62 0.37756,20.72 0.42737,4.858723 0.52821,0.965846 0.33158,-12.8 z m -61.6785,6.56 c 0.0175,-3.564 0.1399,-6.480339 0.2719,-6.480752 0.132,-3.2e-4 0.21191,1.187587 0.17756,2.64 l -0.0624,2.640752 0.48626,-2.24 c 0.26744,-1.232 0.55455,-2.580992 0.63801,-2.99776 0.0835,-0.416768 0.22638,-0.683133 0.31759,-0.59192 0.30618,0.306182 -0.63438,5.421363 -1.07854,5.865517 -0.34788,0.347881 -0.37689,0.888163 -0.13965,2.601613 l 0.2994,2.16255 0.0409,-1.673811 c 0.0225,-0.920595 0.46639,-3.512595 0.98644,-5.76 l 0.94552,-4.086189 0.28819,-15.52 c 0.15851,-8.536 0.23462,-15.5824 0.16914,-15.658667 -0.63582,-0.740572 -0.81488,1.943977 -1.06485,15.964456 -0.15132,8.487859 -0.34996,15.507299 -0.44142,15.598761 -0.16928,0.16928 0.0179,-18.762336 0.25969,-26.273034 0.13009,-4.040023 0.12007,-4.115446 -0.46746,-3.52 -0.56256,0.570142 -0.61468,1.531736 -0.82703,15.260286 -0.12853,8.310025 -0.35415,14.730617 -0.52125,14.833891 -0.28157,0.174019 -0.11585,-16.362743 0.24978,-24.925693 0.0885,-2.071477 0.0342,-3.76 -0.12087,-3.76 -0.34642,0 -0.64172,10.270102 -0.84649,29.44 -0.0915,8.565306 -0.0396,14.230621 0.12609,13.76 0.1549,-0.44 0.29598,-3.716 0.31352,-7.28 z m 8.88223,5.878189 c 8.09363,-1.704352 10.75451,-1.942723 21.70967,-1.944839 11.7319,-0.0022 15.98923,0.454983 24.78586,2.662045 l 4.88766,1.226311 -0.19676,-1.435517 c -0.10822,-0.789533 -0.19676,-2.416647 -0.19676,-3.615811 V 56.25682 l -1.2,-0.341933 c -2.25339,-0.642089 -10.47323,-2.219296 -14.48,-2.778393 -5.63478,-0.786269 -21.17754,-0.797271 -26.92582,-0.01907 -4.6083,0.623878 -11.33802,1.898416 -14.0671,2.664153 l -1.84735,0.51834 -0.10171,3.403408 c -0.0559,1.871872 -0.0656,3.496521 -0.0214,3.610332 0.0442,0.113812 0.93164,-0.05804 1.97217,-0.381891 1.04054,-0.323853 3.59724,-0.947933 5.68156,-1.386848 z m 51.86321,-1.071053 c -0.0693,-0.663923 -0.12711,-0.199136 -0.12853,1.032864 -0.001,1.232 0.0553,1.775213 0.12595,1.207136 0.0707,-0.568074 0.0719,-1.576074 0.003,-2.24 z m -78.08434,0.312864 c -0.0733,-0.484 -0.13331,-0.088 -0.13331,0.88 0,0.968 0.06,1.364 0.13331,0.88 0.0733,-0.484 0.0733,-1.276 0,-1.76 z m 29.44414,1.006666 c -0.10634,-0.106333 -0.38234,-0.1177 -0.61334,-0.02525 -0.25527,0.10215 -0.17945,0.177977 0.19334,0.193331 0.33733,0.01389 0.52633,-0.06174 0.42,-0.168071 z m 38.08,0 c -0.10634,-0.106333 -0.38234,-0.1177 -0.61334,-0.02525 -0.25527,0.10215 -0.17945,0.177977 0.19334,0.193331 0.33733,0.01389 0.52633,-0.06174 0.42,-0.168071 z m -35.98725,-0.336567 c -0.21665,-0.08765 -0.64865,-0.09299 -0.96,-0.01187 -0.31135,0.08113 -0.13409,0.152851 0.39391,0.159373 0.528,0.0065 0.78274,-0.05986 0.56609,-0.147517 z m 34.24,0 c -0.21665,-0.08765 -0.64865,-0.09299 -0.96,-0.01187 -0.31135,0.08113 -0.13409,0.152851 0.39391,0.159373 0.528,0.0065 0.78274,-0.05986 0.56609,-0.147517 z m -32.32,-0.32 c -0.21665,-0.08765 -0.64865,-0.09299 -0.96,-0.01187 -0.31135,0.08113 -0.13409,0.152851 0.39391,0.159373 0.528,0.0065 0.78274,-0.05986 0.56609,-0.147517 z m 30.08,0 c -0.21665,-0.08765 -0.64865,-0.09299 -0.96,-0.01187 -0.31135,0.08113 -0.13409,0.152851 0.39391,0.159373 0.528,0.0065 0.78274,-0.05986 0.56609,-0.147517 z m -27.84,-0.32 c -0.21665,-0.08765 -0.64865,-0.09299 -0.96,-0.01187 -0.31135,0.08113 -0.13409,0.152851 0.39391,0.159373 0.528,0.0065 0.78274,-0.05986 0.56609,-0.147517 z m 25.43391,-0.01069 c -0.308,-0.08049 -0.812,-0.08049 -1.12,0 -0.308,0.08049 -0.056,0.146346 0.56,0.146346 0.616,0 0.868,-0.06586 0.56,-0.146346 z m -21.44,-0.328614 c -0.484,-0.07332 -1.276,-0.07332 -1.76,0 -0.484,0.07332 -0.088,0.133309 0.88,0.133309 0.968,0 1.364,-0.05999 0.88,-0.133309 z m 18.4044,0.0039 c -0.39358,-0.07596 -1.11358,-0.07792 -1.6,-0.0044 -0.48642,0.07355 -0.1644,0.135699 0.7156,0.138102 0.88,0.0022 1.27798,-0.05778 0.8844,-0.133734 z m -6.38634,-0.333456 c -1.97007,-0.05605 -5.28207,-0.05623 -7.36,-3.2e-4 -2.07793,0.05583 -0.46606,0.101686 3.58194,0.10191 4.048,2.24e-4 5.74813,-0.04545 3.77806,-0.101501 z m 26.23289,-23.494531 c -0.29837,-15.477795 -0.39875,-17.579313 -0.87122,-18.24 -0.50054,-0.699938 -0.52146,0.215574 -0.33388,14.61328 0.15151,11.629293 0.31641,15.963213 0.67892,17.84354 0.26335,1.365945 0.42859,2.805945 0.36721,3.2 -0.0614,0.394054 -0.35249,-0.65154 -0.64689,-2.32354 -0.6022,-3.420121 -0.85616,-9.919785 -0.96046,-24.581678 -0.0553,-7.770049 -0.16489,-10.099353 -0.48786,-10.367401 -0.3415,-0.283416 -0.38427,2.272431 -0.23731,14.181678 0.20482,16.598925 0.22452,16.921417 1.29058,21.126989 0.43448,1.714016 0.81085,3.954297 0.83637,4.978403 l 0.0464,1.862009 0.32769,-2.4 c 0.22421,-1.64223 0.2212,-7.923283 -0.01,-19.89328 z m -53.61203,17.781997 c 8.13666,-1.735798 14.73679,-2.410073 23.60108,-2.411101 9.90986,-0.0013 19.23876,1.130183 28.08,3.405312 0.50436,0.129789 0.88,0.09583 0.88,-0.07954 0,-0.406397 -8.58611,-2.205523 -14.4,-3.01737 -3.47892,-0.485792 -6.802,-0.673241 -13.28,-0.7491 -10.92542,-0.127943 -15.80891,0.377731 -26.72,2.7668 -1.672,0.366096 -3.184,0.812617 -3.36,0.992272 -0.21712,0.221635 -0.0114,0.251715 0.64,0.09357 0.528,-0.128192 2.57951,-0.57857 4.55892,-1.000839 z m -0.98456,-0.743437 c 8.63471,-1.880553 15.75444,-2.628617 24.97051,-2.623628 3.73168,0.0019 7.25968,0.07787 7.84,0.168566 0.58032,0.09069 2.13513,0.248803 3.45513,0.351354 3.06233,0.237916 9.4431,1.283577 13.74894,2.253132 1.84191,0.414749 3.37436,0.725111 3.40542,0.689693 0.1249,-0.14239 -1.23655,-5.202729 -1.46549,-5.447017 -0.66006,-0.70434 -11.78073,-2.5488 -18.56887,-3.079815 -10.73621,-0.839853 -25.7343,0.315133 -35.31405,2.719498 -0.81109,0.203571 -1.13541,0.934925 -2.09899,4.733254 -0.30274,1.193386 -0.28939,1.224615 0.44482,1.040339 0.41632,-0.104489 2.02848,-0.466908 3.58258,-0.805376 z m 78.404239,-0.08528 c -0.10216,-0.255273 -0.17798,-0.179449 -0.19334,0.193335 -0.0139,0.337331 0.0617,0.526333 0.16807,0.42 0.10634,-0.106336 0.1177,-0.382336 0.0252,-0.613335 z M 15.077411,49.106735 c -0.0888,-0.22 -0.1614,-0.04 -0.1614,0.4 0,0.44 0.0726,0.62 0.1614,0.4 0.0888,-0.22 0.0888,-0.58 0,-0.8 z m 106.879999,0 c -0.0888,-0.22 -0.16141,-0.04 -0.16141,0.4 0,0.44 0.0726,0.62 0.16141,0.4 0.0888,-0.22 0.0888,-0.58 0,-0.8 z m -76.024079,-1.67138 c 8.10693,-1.587853 11.6305,-1.8909 22.21215,-1.910368 10.72345,-0.01971 15.33748,0.3656 22.95498,1.91702 2.11917,0.4316 4.08523,0.780352 4.36903,0.774999 2.44774,-0.04616 -5.81387,-1.763434 -13.3323,-2.771271 -5.90367,-0.791382 -21.31355,-0.789984 -27.27171,0.0026 -5.27068,0.701024 -12.75897,2.079124 -13.42869,2.471338 -0.81312,0.476192 0.0894,0.379014 4.49654,-0.484192 z m -0.34785,-0.9465 c 8.05054,-1.560608 14.27315,-2.131792 23.20342,-2.129881 9.20777,0.0019 15.59406,0.650227 24.21975,2.45848 1.17875,0.247104 2.3089,0.449283 2.51146,0.449283 0.27475,0 0.31801,-3.108816 0.17035,-12.24 -0.10886,-6.732 -0.28003,-13.703656 -0.38038,-15.492569 -0.16782,-2.991781 -0.23786,-3.266242 -0.87352,-3.423106 -3.4361,-0.847927 -22.02834,-2.155343 -27.57108,-1.938813 -1.408,0.055 -4.72,0.178659 -7.36,0.274788 -4.6719,0.170115 -11.25644,0.799152 -15.56914,1.487356 l -2.12915,0.33976 -0.19099,3.896292 c -0.32702,6.671149 -0.53564,27.096356 -0.27675,27.095054 0.13532,-6.4e-4 2.04603,-0.35017 4.24603,-0.776644 z m -23.84509,-6.607244 c 0.11887,-2.01018 0.3442,-4.662874 0.50073,-5.894874 0.15653,-1.232 0.27431,-2.6 0.26173,-3.04 -0.0507,-1.7727 -0.55257,1.528771 -0.8977,5.905302 -0.59922,7.598634 -0.62066,8.059348 -0.34201,7.349572 0.14362,-0.365818 0.35838,-2.309818 0.47725,-4.32 z m 99.903689,3.165126 c -0.10216,-0.255274 -0.17798,-0.17945 -0.19334,0.193334 -0.0139,0.337332 0.0617,0.526333 0.16807,0.42 0.10634,-0.106336 0.1177,-0.382336 0.0252,-0.613334 z m 0.94446,-3.7 c -0.0916,-1.716 -0.1747,-4.02 -0.18476,-5.12 -0.0146,-1.590269 -0.1205,-2 -0.51719,-2 -0.28499,0 -0.40447,0.152762 -0.27867,0.356307 0.12112,0.195971 0.28476,1.887971 0.36367,3.76 0.0789,1.872032 0.1936,3.691693 0.25489,4.043693 0.0613,0.352 0.12214,0.964 0.13522,1.36 0.0131,0.396 0.10692,0.72 0.20854,0.72 0.10162,0 0.10985,-1.404 0.0183,-3.12 z M 15.143661,34.527851 c 0.0266,-1.487629 -0.0746,-2.266906 -0.27818,-2.141114 -0.19308,0.119334 -0.29948,1.998819 -0.26826,4.738886 0.0458,4.021098 0.0777,4.266285 0.27818,2.141114 0.12454,-1.32 0.24525,-3.452499 0.26826,-4.738886 z m 7.50906,-6.836647 c 0.21304,-0.814656 0.0227,-1.224467 -0.56882,-1.224467 -0.4216,0 -0.87888,1.432872 -0.55927,1.752479 0.38701,0.387008 0.9588,0.119378 1.12809,-0.528012 z m 92.741469,-0.272355 c -0.13546,-0.964148 -0.22857,-1.076492 -0.66742,-0.80527 -0.18771,0.116011 -0.34129,0.572989 -0.34129,1.015507 0,0.595352 0.14563,0.775622 0.56,0.693227 0.39239,-0.07802 0.52669,-0.348429 0.44871,-0.903464 z M 19.096291,25.169372 c 0.11572,-0.788471 0.0653,-0.868459 -0.33694,-0.534876 -0.43849,0.363615 -1.33387,2.161093 -1.33387,2.677743 0,0.642329 1.55468,-1.351592 1.67081,-2.142867 z m 1.89409,0.428963 c -0.2202,-0.393473 -0.31831,-0.320795 -0.48991,0.362916 -0.11801,0.470205 -0.11445,1.016916 0.008,1.214913 0.33744,0.54599 0.80818,-0.994977 0.482,-1.577829 z m 95.493689,0.348521 c -0.15111,-0.602026 -0.30273,-0.757025 -0.47225,-0.482743 -0.36089,0.583935 -0.0257,2.089962 0.37582,1.688464 0.17544,-0.17544 0.21883,-0.718015 0.0964,-1.205721 z m 2.95645,0.599881 c -0.20418,-0.484 -0.6331,-1.164 -0.95314,-1.511111 -0.57825,-0.627153 -0.5819,-0.626922 -0.5819,0.03684 0,0.709462 1.12927,2.354266 1.61636,2.354266 0.15946,0 0.12286,-0.396 -0.0813,-0.88 z M 23.185481,24.927912 c 0,-0.142354 0.504,-1.0958 1.12,-2.11877 0.616,-1.022969 1.12,-1.936816 1.12,-2.03077 0,-0.503181 -1.45459,1.256234 -2.11459,2.557727 -0.86016,1.696201 -0.89733,1.850638 -0.44541,1.850638 0.176,0 0.32,-0.116471 0.32,-0.258825 z M 114.2065,24.466737 c -0.38835,-1.258963 -1.01558,-2.296993 -1.87062,-3.09578 -0.45672,-0.42668 -0.8304,-0.628998 -0.8304,-0.449597 0,0.179402 0.28283,0.582138 0.6285,0.894969 0.34568,0.312832 0.86924,1.19915 1.16347,1.969596 0.54304,1.421929 1.31632,2.001055 0.90905,0.680812 z m -91.943599,-1.44 c -0.29941,-0.533333 -0.32465,-0.533333 -0.53013,0 -0.11867,0.308 -0.11867,0.812 0,1.12 0.20548,0.533333 0.23072,0.533333 0.53013,0 0.20584,-0.36666 0.20584,-0.75334 0,-1.12 z m 93.082579,0.56 c 0,-0.774125 -0.51736,-1.101164 -0.75643,-0.478162 -0.23446,0.611 0.094,1.489804 0.46996,1.257438 0.15756,-0.09738 0.28647,-0.44805 0.28647,-0.779276 z m -93.759999,-2.24 c 0.18839,-0.352 0.27052,-0.64 0.18252,-0.64 -0.088,0 -0.31413,0.288 -0.50252,0.64 -0.18838,0.352 -0.27052,0.64 -0.18252,0.64 0.088,0 0.31414,-0.288 0.50252,-0.64 z m 2.24,0 c 0,-0.176 -0.0635,-0.32 -0.14111,-0.32 -0.0776,0 -0.23011,0.144 -0.33889,0.32 -0.10877,0.176 -0.0453,0.32 0.14112,0.32 0.18638,0 0.33888,-0.144 0.33888,-0.32 z m 0.15116,-0.64 c 0.23928,0 0.47409,-0.473408 0.54775,-1.104337 0.14703,-1.259437 -0.21636,-1.112137 -1.41737,0.574531 -0.59991,0.84249 -0.61522,0.938879 -0.11889,0.74842 0.31333,-0.120238 0.75816,-0.218614 0.98851,-0.218614 z m 90.129479,-0.24 c -0.16603,-0.308 -0.64591,-0.881683 -1.0664,-1.27485 l -0.76452,-0.71485 0.12805,1.096907 c 0.12369,1.059473 0.23011,1.145001 1.75349,1.409215 0.13819,0.02397 0.11541,-0.208422 -0.0506,-0.516422 z m -90.760639,-1.68 c 0.31856,-0.352 0.50719,-0.64 0.41919,-0.64 -0.088,0 -0.42063,0.288 -0.73919,0.64 -0.31855,0.352 -0.50719,0.64 -0.41919,0.64 0.088,0 0.42064,-0.288 0.73919,-0.64 z m 15.2,-0.997771 c 0,-0.558514 -0.13382,-0.877289 -0.32,-0.762229 -0.176,0.108774 -0.32,0.629771 -0.32,1.157771 0,0.558514 0.13383,0.877289 0.32,0.762229 0.176,-0.108774 0.32,-0.629771 0.32,-1.157771 z m 60.48,0.197771 c 0,-0.616 -0.14238,-1.12 -0.31641,-1.12 -0.29514,0 -0.35931,1.464645 -0.0876,2 0.25909,0.510532 0.40402,0.194852 0.40402,-0.88 z m -71.76465,-4.244196 c 2.67678,-1.832954 9.02928,-5.5011237 12.37327,-7.1447858 1.05348,-0.5178182 1.7014,-1.0862784 1.97295,-1.7310179 0.22239,-0.528 0.3579,-1.0066109 0.30114,-1.0635798 -0.14506,-0.1455898 -7.42877,3.8498112 -10.88271,5.9695938 -4.96153,3.0450367 -7.31597,5.0503557 -8.74907,7.4517567 -1.06004,1.776275 -0.83083,1.787051 0.74442,0.035 0.78944,-0.878048 2.69744,-2.460681 4.24,-3.516964 z m 0.26625,4.623305 c 0.0888,-0.23149 0.0421,-0.743729 -0.10388,-1.138308 l -0.26539,-0.717417 -0.58497,0.64639 c -0.32174,0.355514 -0.50003,0.867752 -0.39621,1.138308 0.23086,0.601621 1.12872,0.648845 1.35045,0.07103 z m 83.150489,0.227322 c 0.45429,-0.174328 0.45003,-0.285661 -0.0428,-1.12 -0.72584,-1.22872 -1.04929,-1.169051 -1.04929,0.193569 0,1.130904 0.17418,1.278665 1.09209,0.926431 z m 4.1934,-1.075809 c -1.32828,-2.568625 -4.42641,-5.1544 -10.24549,-8.5511382 -6.445819,-3.7625894 -9.439999,-5.2746777 -9.439999,-4.7672992 0,1.0474279 0.51883,1.5598394 2.68053,2.6473687 8.497169,4.2748507 17.159469,10.2004537 17.159469,11.7382427 0,0.169879 0.0826,0.226253 0.1836,0.125275 0.10097,-0.100978 -0.0512,-0.637579 -0.33811,-1.192449 z M 40.145481,16.096264 c 0,-0.28024 -0.12637,-0.509527 -0.28082,-0.509527 -0.4704,0 -0.87995,0.749864 -0.94113,1.723136 l -0.058,0.923137 0.63999,-0.81361 c 0.35199,-0.447485 0.63998,-1.042897 0.63998,-1.323136 z m 57.47304,-0.133632 c -0.78848,-0.788477 -0.94129,-0.219667 -0.30038,1.118117 l 0.58734,1.225988 0.10542,-0.923152 c 0.0609,-0.533408 -0.10475,-1.133318 -0.39238,-1.420953 z m -69.2523,0.744105 c -0.0719,-0.616 -0.187,-1.12 -0.25575,-1.12 -0.0687,0 -0.12499,0.504 -0.12499,1.12 0,0.616 0.11509,1.12 0.25575,1.12 0.14066,0 0.1969,-0.504 0.12499,-1.12 z m 80.570929,-0.936331 c -0.20223,-0.202225 -0.30201,0.132188 -0.28417,0.952331 0.0272,1.249176 0.0309,1.252831 0.31167,0.311669 0.17573,-0.588917 0.16523,-1.071265 -0.0275,-1.264 z M 33.745481,15.41373 c 0,-0.088 -0.576,0.133853 -1.28,0.493007 -0.704,0.359154 -1.28,0.725007 -1.28,0.813007 0,0.088 0.576,-0.133853 1.28,-0.493007 0.704,-0.359154 1.28,-0.725007 1.28,-0.813007 z m 71.999999,1.319106 c 0,-0.264252 -2.27743,-1.535334 -2.44703,-1.365737 -0.0953,0.09535 0.38022,0.465412 1.05683,0.822359 1.37236,0.723992 1.3902,0.730964 1.3902,0.543378 z m 0.86632,-1.862368 c -0.0765,-0.398052 -0.14207,-0.147731 -0.14562,0.556269 -0.004,0.704 0.0591,1.029679 0.13917,0.723731 0.0801,-0.305948 0.083,-0.881948 0.006,-1.28 z m -65.186319,0.17042 c 0,-0.756341 -0.78971,-0.274566 -0.91073,0.555603 -0.0967,0.66321 -0.0459,0.705825 0.4,0.335753 0.2809,-0.23313 0.51073,-0.634239 0.51073,-0.891356 z m 54.75535,-0.186808 c -0.51604,-0.516031 -0.64325,-0.16993 -0.26931,0.732657 0.28706,0.69287 0.35037,0.720458 0.47271,0.20601 0.0777,-0.326695 -0.0138,-0.749095 -0.2034,-0.938667 z m -35.5046,-0.863289 c 9.07434,-0.452966 19.9778,-0.04724 28.98925,1.078715 l 5.52,0.689707 v -0.684904 c 0,-0.593867 -0.24457,-0.715399 -1.84,-0.914314 -1.012,-0.126175 -2.128,-0.295906 -2.48,-0.37718 -0.352,-0.08127 -1.36,-0.202261 -2.24,-0.268859 -0.88,-0.0666 -3.10778,-0.284067 -4.95063,-0.483263 -5.53493,-0.59828 -15.88994,-0.827809 -23.28937,-0.516233 -1.452,0.06114 -2.64,-0.01458 -2.64,-0.168279 0,-0.153694 0.36,-0.279444 0.8,-0.279444 0.49778,0 0.8,-0.181333 0.8,-0.48 0,-0.357923 -0.37884,-0.48 -1.48959,-0.48 -1.47085,0 -1.48229,0.0081 -0.90863,0.641962 0.31953,0.353079 0.52185,0.695061 0.4496,0.75996 -0.1405,0.126196 -6.64123,0.879378 -8.77138,1.016262 -0.704,0.04524 -1.95556,0.238374 -2.78125,0.429188 -0.82568,0.190813 -1.70085,0.270338 -1.94481,0.17672 -0.71944,-0.276076 -2.15394,0.425673 -2.15394,1.0537 0,0.547051 0.25941,0.541629 5.59805,-0.117006 3.07892,-0.379851 9.07864,-0.86438 13.3327,-1.076732 z m 45.289839,0.395946 c -0.0805,-0.308 -0.14635,-0.056 -0.14635,0.56 0,0.616 0.0659,0.868 0.14635,0.56 0.0805,-0.308 0.0805,-0.812 0,-1.12 z m -77.953389,0.24 c 0.29656,0 0.78606,-0.376755 1.08777,-0.837234 0.54146,-0.826363 0.52947,-0.824086 -0.92319,0.175373 -0.80948,0.556934 -1.47178,1.106489 -1.47178,1.221234 0,0.114745 0.1728,0.03583 0.384,-0.175373 0.2112,-0.2112 0.62664,-0.384 0.9232,-0.384 z m 12.7728,-2.657981 c 0,-0.327444 -0.11211,-0.547352 -0.24913,-0.488686 -0.13703,0.05867 -1.04051,0.443685 -2.00773,0.855596 -1.17386,0.499911 -1.99612,1.111279 -2.47296,1.838706 l -0.71436,1.089777 2.72209,-1.35002 c 1.95696,-0.970553 2.72209,-1.517364 2.72209,-1.945373 z m 60.472879,2.737981 c -0.004,-0.132 -0.25591,-0.558173 -0.56,-0.947052 -0.55913,-0.715042 -4.177309,-2.495179 -4.472189,-2.200305 -0.43257,0.43257 0.41575,1.229346 2.38476,2.23987 2.282219,1.171268 2.659079,1.300449 2.647429,0.907487 z M 33.871251,14.120565 c 0.33322,-0.868366 0.21807,-1.794988 -0.20577,-1.655851 -0.47017,0.154347 -0.74366,2.162023 -0.29451,2.162023 0.16832,0 0.39345,-0.227777 0.50028,-0.506172 z m 69.954229,-0.434943 c 0,-0.888885 -0.48162,-1.563931 -0.85174,-1.19381 -0.26265,0.262649 0.22597,2.134925 0.55717,2.134925 0.16201,0 0.29457,-0.423501 0.29457,-0.941115 z m 5.29236,0.641122 c -0.50251,-0.81309 -13.467889,-7.9511389 -13.813859,-7.6051766 -0.0922,0.09223 2.11138,1.3364496 4.896909,2.7649331 2.78552,1.4284835 5.85659,3.1546875 6.82459,3.8360095 1.76336,1.241135 2.43927,1.565536 2.09236,1.004234 z M 37.565561,11.913358 c 1.63031,-0.830017 3.30492,-2.4067833 2.5557,-2.4063682 -0.25068,1.389e-4 -1.35578,0.4260235 -2.45578,0.9464112 -1.35121,0.63923 -2.00142,1.132229 -2.00437,1.519748 -0.003,0.315473 -0.0782,0.933588 -0.16836,1.373588 l -0.16398,0.8 0.38843,-0.745054 c 0.21365,-0.40978 1.04541,-1.079526 1.84836,-1.488325 z m 3.85992,1.593379 c 0,-0.264 -0.144,-0.48 -0.32,-0.48 -0.176,0 -0.32,0.216 -0.32,0.48 0,0.264 0.144,0.48 0.32,0.48 0.176,0 0.32,-0.216 0.32,-0.48 z m 1.92,-0.357322 c 0,-0.243473 -0.288,-0.442678 -0.64,-0.442678 -0.41619,0 -0.64,0.213333 -0.64,0.610042 0,0.452496 0.16529,0.566819 0.64,0.442678 0.352,-0.09205 0.64,-0.366569 0.64,-0.610042 z m 51.60462,0.646037 c 0.31141,-0.311407 -0.11616,-1.088715 -0.59885,-1.088715 -0.24517,0 -0.44577,0.192 -0.44577,0.426667 0,0.708745 0.61081,1.095857 1.04462,0.662048 z m 1.19538,-0.288715 c 0,-0.264 -0.144,-0.48 -0.32,-0.48 -0.176,0 -0.32,0.216 -0.32,0.48 0,0.264 0.144,0.48 0.32,0.48 0.176,0 0.32,-0.216 0.32,-0.48 z m 5.287659,-1.085102 c -0.13418,-0.610958 -0.59032,-1.201046 -1.23044,-1.591788 -1.160329,-0.708282 -3.417219,-1.3905859 -3.417219,-1.0330957 0,0.4144847 1.39081,1.5330797 2.76054,2.2202427 0.726289,0.364364 1.413669,0.905226 1.527519,1.201913 0.32923,0.857943 0.59415,0.27059 0.3596,-0.797272 z m -9.207659,0.695901 c -0.484,-0.07332 -0.88,-0.256303 -0.88,-0.406628 0,-0.511364 -1.91879,-0.723377 -2.46599,-0.272475 -0.45728,0.376799 -0.36912,0.451704 0.73311,0.622894 0.68908,0.107025 1.75688,0.193449 2.37288,0.192054 0.90073,-0.002 0.94772,-0.02864 0.24,-0.135845 z m -59.16384,-1.648102 c 1.52011,-0.856516 4.11086,-2.2335018 5.75721,-3.0599677 1.64635,-0.8264663 2.91566,-1.5803716 2.82068,-1.6753453 -0.18513,-0.1851328 -6.80562,3.2219783 -9.97405,5.132958 -2.81455,1.697543 -1.81915,1.41404 1.39616,-0.397645 z m 15.72384,1.077303 c 0,-0.5227 -1.74812,-0.696994 -2.05241,-0.204634 -0.26646,0.431135 0.15778,0.684634 1.14575,0.684634 0.59259,0 0.90666,-0.166275 0.90666,-0.48 z m 5.16455,-0.469354 0.75545,-0.629354 -1.01382,-0.01065 c -1.38084,-0.0145 -2.01993,0.273288 -1.81174,0.815837 0.2463,0.641835 1.18424,0.562166 2.07011,-0.175837 z m 31.68,-0.02129 c -0.88192,-0.734715 -2.28455,-0.842785 -2.28455,-0.176023 0,0.568563 0.49433,0.772151 1.92,0.790758 l 1.12,0.01462 -0.75545,-0.629353 z m -2.60455,0.01064 c 0,-0.176 -0.0635,-0.32 -0.14111,-0.32 -0.0776,0 -0.23011,0.144 -0.33889,0.32 -0.10877,0.176 -0.0453,0.32 0.14112,0.32 0.18638,0 0.33888,-0.144 0.33888,-0.32 z m -17.37024,-0.756695 c -0.0655,-0.199818 -0.53954,-0.412299 -1.0534,-0.47218 -0.51385,-0.05988 -1.04054,-0.275881 -1.17042,-0.48 -0.13675,-0.21492 -0.2382,-0.02318 -0.24104,0.455542 -0.003,0.454666 0.0627,0.894265 0.14532,0.976885 0.31221,0.312214 2.43524,-0.127347 2.31954,-0.480247 z m 8.41024,0.116695 c 0,-0.582484 -0.21333,-0.64 -2.37382,-0.64 -1.30561,0 -2.60161,0.08741 -2.88,0.194236 -1.15848,0.444551 -0.33934,0.747202 2.29382,0.847502 1.54,0.05866 2.836,0.136267 2.88,0.172459 0.044,0.03619 0.08,-0.222197 0.08,-0.574197 z m 3.2,0.32 c 0,-0.176 -0.1525,-0.32 -0.33888,-0.32 -0.18639,0 -0.24989,0.144 -0.14112,0.32 0.10878,0.176 0.26128,0.32 0.33889,0.32 0.0776,0 0.14111,-0.144 0.14111,-0.32 z m 2.56,-0.16 c 0,-0.335238 -0.33778,-0.48 -1.12,-0.48 -0.78222,0 -1.12,0.144762 -1.12,0.48 0,0.335238 0.33778,0.48 1.12,0.48 0.78222,0 1.12,-0.144762 1.12,-0.48 z m 13.99334,0.286667 c -0.10634,-0.106334 -0.38234,-0.117702 -0.61334,-0.02526 -0.25527,0.102152 -0.17945,0.177978 0.19334,0.193333 0.33733,0.01389 0.52633,-0.06174 0.42,-0.168069 z m -49.80716,-0.446667 c 0.91857,0 0.93382,-0.02874 0.93382,-1.7599997 0,-1.7327472 -0.0145,-1.76 -0.93729,-1.76 -0.85874,0 -0.97942,0.1449229 -1.44,1.72925 -0.62197,2.1394967 -0.62182,2.2249297 0.004,1.9849857 0.27836,-0.10683 0.92636,-0.194236 1.43997,-0.194236 z m 17.65382,0.10807 c -0.22,-0.08877 -0.58,-0.08877 -0.8,0 -0.22,0.08877 -0.04,0.161404 0.4,0.161404 0.44,0 0.62,-0.07263 0.4,-0.161404 z m 14.55334,0.0186 c -0.10634,-0.106338 -0.38234,-0.117706 -0.61334,-0.02527 -0.25527,0.102153 -0.17945,0.177979 0.19334,0.193334 0.33733,0.01389 0.52633,-0.06174 0.42,-0.168071 z m 18.64666,-0.229666 c 0,-0.232647 -0.22953,-1.096647 -0.51008,-1.9199992 -0.4533,-1.33036 -0.61546,-1.4970045 -1.45672,-1.4970045 -0.94093,0 -0.94606,0.010138 -0.84992,1.68 0.10491,1.8221587 -0.1088,1.6465077 2.57672,2.1178747 0.132,0.02317 0.24,-0.148223 0.24,-0.380871 z m -45.36,-0.661199 c 0.79873,-0.103546 1.20164,-0.02854 1.2049,0.224314 0.003,0.247684 0.10222,0.226233 0.28455,-0.06164 0.17627,-0.278306 0.64139,-0.388431 1.2582,-0.297902 0.53821,0.07899 0.91461,0.04015 0.83645,-0.08631 -0.24251,-0.392385 7.64356,-0.7585087 16.0159,-0.7435657 8.69508,0.01552 13.9783,0.3333927 13.24618,0.7969767 -0.2895,0.183317 -0.31235,0.284248 -0.0651,0.287427 0.20962,0.0027 0.47733,-0.150768 0.59492,-0.341029 0.11758,-0.19026 0.52208,-0.2698 0.89888,-0.176755 0.6848,0.169101 4.45496,0.577579 5.96509,0.646286 0.6322,0.02876 0.77684,-0.09784 0.68958,-0.603602 -0.0607,-0.3520047 -0.15259,-0.6838567 -0.20412,-0.7374549 -0.19337,-0.2011258 -8.48752,-1.0233706 -12.64546,-1.2536138 -8.83882,-0.4894445 -20.57172,-0.1222941 -28.10315,0.8794154 -1.28874,0.1714067 -2.45994,0.3116486 -2.60268,0.3116486 -0.30681,0 -0.65762,1.1698817 -0.42159,1.4059147 0.0896,0.08964 0.54198,0.105033 1.0052,0.03422 0.46322,-0.07082 1.38222,-0.198767 2.04222,-0.28433 z m 12.16,-0.407735 c -0.22,-0.08877 -0.58,-0.08877 -0.8,0 -0.22,0.08877 -0.04,0.161404 0.4,0.161404 0.44,0 0.62,-0.07263 0.4,-0.161404 z m 9.52,-0.10807 c 0.32799,-0.2119607 -0.51407,-0.3117517 -2.65888,-0.3150997 -2.01228,-0.0031 -3.0679,0.109955 -2.94112,0.3150997 0.25346,0.410109 4.9654,0.410109 5.6,0 z m 5.03334,0.126667 c -0.10634,-0.106334 -0.38234,-0.117702 -0.61334,-0.02526 -0.25527,0.102152 -0.17945,0.177978 0.19334,0.193333 0.33733,0.01389 0.52633,-0.06174 0.42,-0.168069 z M 52.035041,8.0127805 c 6.16973,-0.7714352 26.01284,-0.779263 32.77925,-0.012931 5.92799,0.671377 5.57119,0.6769498 5.57119,-0.087015 0,-0.8298057 -0.71532,-0.9731964 -8,-1.6036467 -8.62993,-0.7468749 -22.41661,-0.6807881 -29.44,0.1411216 -0.44,0.051491 -1.808,0.1930586 -3.04,0.3145946 -2.9596,0.2919638 -3.36,0.4305997 -3.36,1.1633981 0,0.7596761 0.0797,0.760903 5.48956,0.084478 z m -7.42688,-1.3860432 c 0.13768,0 0.33914,-0.6479011 0.44767,-1.4397798 0.10855,-0.7918791 0.28773,-1.7998791 0.39819,-2.24 0.16588,-0.6608908 0.0853,-0.8002202 -0.46259,-0.8002202 -0.86254,0 -1.20831,0.6955046 -1.4968,3.0108221 -0.21281,1.7080137 -0.18247,1.8704393 0.3138,1.68 0.30217,-0.1159523 0.66204,-0.2108221 0.79973,-0.2108221 z m 48.86179,-1.7327738 c -0.27908,-2.3744653 -0.46808,-2.7472262 -1.39294,-2.7472262 -0.59873,0 -0.75103,0.127614 -0.60536,0.5072261 0.10705,0.2789742 0.28629,1.2869742 0.3983,2.2400001 0.18577,1.5806512 0.27388,1.7327738 1.00365,1.7327738 0.77991,0 0.79488,-0.043508 0.59635,-1.7327738 z M 47.637491,2.9503114 c 0.59051,-0.1259837 2.05868,-0.2713226 9.92092,-0.9821035 2.69253,-0.2434166 18.69988,-0.2187185 22.11878,0.034128 6.82877,0.5050242 10.16896,1.0115193 10.60522,1.6081376 0.33225,0.4543773 0.42307,0.4755417 0.42307,0.098587 0,-1.0568543 -0.80943,-1.5516616 -3.04,-1.8583597 -10.07831,-1.38574572 -26.69261,-1.39233132 -38.08,-0.015094 -2.67969,0.3240926 -3.38098,0.7552199 -3.33834,2.0522925 0.0206,0.6275648 0.0383,0.6243315 0.372,-0.068117 0.19269,-0.3998256 0.65095,-0.7910873 1.01835,-0.8694711 z m 10.90799,0.7146125 c 0.21403,-0.2147978 -0.19815,-0.2544266 -1.24466,-0.1196676 -0.86057,0.1108144 -2.33657,0.201481 -3.28,0.201481 -0.94344,0 -1.71534,0.1346493 -1.71534,0.2992202 0,0.396471 5.81936,0.041123 6.24,-0.3810336 z m 26.08,0.4018134 c 0,-0.176 -0.684,-0.3212515 -1.52,-0.3227814 -0.836,-0.00154 -2.312,-0.092091 -3.28,-0.2012474 -1.2529,-0.1412832 -1.66769,-0.098884 -1.43962,0.1471552 0.1762,0.1900915 1.4002,0.3960406 2.72,0.4576643 1.31979,0.061624 2.65162,0.1406557 2.95962,0.1756263 0.308,0.034971 0.56,-0.080417 0.56,-0.256417 z"
       id="path32" />
  </g>
</svg>
