<?xml version="1.0" standalone="no"?>
<!DOCTYPE svg PUBLIC "-//W3C//DTD SVG 20010904//EN"
 "http://www.w3.org/TR/2001/REC-SVG-20010904/DTD/svg10.dtd">
<svg version="1.0" xmlns="http://www.w3.org/2000/svg"
 width="128.000000pt" height="128.000000pt" viewBox="0 0 128.000000 128.000000"
 preserveAspectRatio="xMidYMid meet">

<g transform="translate(0.000000,128.000000) scale(0.100000,-0.100000)"
fill="#ffffff" stroke="none">
<path d="M405 950 c-111 -23 -208 -56 -301 -103 -114 -57 -114 -85 -1 -234
182 -240 231 -303 238 -303 5 0 50 14 101 32 81 27 106 31 198 31 92 0 117 -4
203 -33 57 -19 102 -29 106 -24 8 8 91 116 259 337 54 71 66 115 40 150 -33
42 -253 126 -398 152 -118 21 -331 18 -445 -5z m528 -53 c54 -14 140 -46 192
-71 81 -38 95 -48 95 -69 0 -16 -51 -90 -146 -214 l-146 -190 -62 23 c-34 12
-99 28 -144 34 -97 14 -208 2 -308 -34 l-62 -23 -146 190 c-92 120 -146 199
-146 213 0 41 169 115 350 155 129 28 388 21 523 -14z"/>
<path d="M785 800 l-80 -38 -5 27 c-7 36 -26 33 -142 -22 l-98 -46 0 29 c0 16
-4 31 -10 35 -11 7 -230 -101 -230 -114 0 -24 26 -19 110 23 l90 45 0 -30 c0
-16 6 -32 13 -35 7 -2 60 17 117 44 l105 49 3 -24 c2 -13 9 -26 16 -29 20 -8
229 93 224 108 -8 22 -30 18 -113 -22z"/>
<path d="M945 640 l-80 -38 -5 27 c-7 36 -26 33 -142 -22 l-98 -46 0 29 c0 16
-4 31 -10 35 -11 7 -230 -101 -230 -114 0 -24 26 -19 110 23 l90 45 0 -30 c0
-16 6 -32 13 -35 7 -2 60 17 117 44 l105 49 3 -24 c2 -13 9 -26 16 -29 20 -8
229 93 224 108 -8 22 -30 18 -113 -22z"/>
</g>
</svg>
