<?xml version="1.0" encoding="UTF-8" standalone="no"?>
<svg
   version="1.0"
   width="124.28116pt"
   height="65.913597pt"
   viewBox="0 0 124.28116 65.913597"
   preserveAspectRatio="xMidYMid"
   id="svg1822"
   xmlns="http://www.w3.org/2000/svg"
   >
  <defs
     id="defs1826" />
  <g
     transform="matrix(0.1,0,0,-0.1,-1.8374588,96.913598)"
     fill="#ffffff"
     stroke="none"
     id="g1820"
     style="fill:#ffffff">
    <path
       d="M 405,950 C 294,927 197,894 104,847 -10,790 -10,762 103,613 285,373 334,310 341,310 c 5,0 50,14 101,32 81,27 106,31 198,31 92,0 117,-4 203,-33 57,-19 102,-29 106,-24 8,8 91,116 259,337 54,71 66,115 40,150 -33,42 -253,126 -398,152 -118,21 -331,18 -445,-5 z m 528,-53 c 54,-14 140,-46 192,-71 81,-38 95,-48 95,-69 0,-16 -51,-90 -146,-214 L 928,353 866,376 c -34,12 -99,28 -144,34 -97,14 -208,2 -308,-34 L 352,353 206,543 C 114,663 60,742 60,756 c 0,41 169,115 350,155 129,28 388,21 523,-14 z"
       id="path1814"
       style="fill:#ffffff" />
    <path
       d="m 785,800 -80,-38 -5,27 c -7,36 -26,33 -142,-22 l -98,-46 v 29 c 0,16 -4,31 -10,35 -11,7 -230,-101 -230,-114 0,-24 26,-19 110,23 l 90,45 v -30 c 0,-16 6,-32 13,-35 7,-2 60,17 117,44 l 105,49 3,-24 c 2,-13 9,-26 16,-29 20,-8 229,93 224,108 -8,22 -30,18 -113,-22 z"
       id="path1816"
       style="fill:#ffffff" />
    <path
       d="m 945,640 -80,-38 -5,27 c -7,36 -26,33 -142,-22 l -98,-46 v 29 c 0,16 -4,31 -10,35 -11,7 -230,-101 -230,-114 0,-24 26,-19 110,23 l 90,45 v -30 c 0,-16 6,-32 13,-35 7,-2 60,17 117,44 l 105,49 3,-24 c 2,-13 9,-26 16,-29 20,-8 229,93 224,108 -8,22 -30,18 -113,-22 z"
       id="path1818"
       style="fill:#ffffff" />
  </g>
</svg>
