<?xml version="1.0" standalone="no"?>
<!DOCTYPE svg PUBLIC "-//W3C//DTD SVG 20010904//EN"
 "http://www.w3.org/TR/2001/REC-SVG-20010904/DTD/svg10.dtd">
<svg version="1.0" xmlns="http://www.w3.org/2000/svg"
 width="128.000000pt" height="128.000000pt" viewBox="0 0 128.000000 128.000000"
 preserveAspectRatio="xMidYMid meet">

<g transform="translate(0.000000,128.000000) scale(0.100000,-0.100000)"
fill="#ffffff" stroke="none">
<path d="M110 1060 c-19 -19 -20 -33 -20 -320 0 -366 -11 -340 143 -340 l102
0 24 -68 c12 -37 29 -92 35 -122 8 -35 18 -55 27 -55 21 0 17 81 -8 145 -43
109 -49 100 69 100 l103 0 24 -67 c12 -38 29 -93 35 -123 8 -35 18 -55 27 -55
21 0 17 81 -8 145 -43 109 -49 100 69 100 l103 0 24 -67 c12 -38 29 -93 35
-123 8 -35 18 -55 27 -55 21 0 17 81 -8 145 -12 30 -24 65 -28 78 l-6 22 135
0 c192 0 176 -32 176 340 0 287 -1 301 -20 320 -19 19 -33 20 -530 20 -497 0
-511 -1 -530 -20z m1035 -320 l0 -295 -134 -3 -133 -3 6 36 c4 20 16 56 26 80
10 24 22 60 26 80 l6 36 22 -20 c12 -12 28 -21 34 -21 25 0 8 37 -35 74 l-44
40 -52 -52 c-43 -43 -48 -52 -33 -58 11 -4 26 2 42 16 33 31 32 10 -1 -73 -14
-34 -28 -79 -32 -99 l-6 -38 -104 0 -105 0 6 35 c4 20 16 56 26 80 10 24 22
60 26 80 l6 36 22 -20 c12 -12 28 -21 34 -21 25 0 8 37 -35 74 l-44 40 -52
-52 c-43 -43 -48 -52 -33 -58 11 -4 26 2 42 16 33 31 32 10 -1 -73 -14 -34
-28 -79 -32 -99 l-6 -38 -104 0 -105 0 6 35 c4 20 16 56 26 80 10 24 22 60 26
80 l6 36 22 -20 c12 -12 28 -21 34 -21 25 0 8 37 -35 74 l-44 40 -52 -52 c-43
-43 -48 -52 -33 -58 11 -4 26 2 42 16 33 31 32 10 -1 -73 -14 -34 -28 -79 -32
-100 l-6 -38 -101 3 -101 3 -3 285 c-1 157 0 290 3 297 3 11 108 13 507 11
l503 -3 0 -295z"/>
</g>
</svg>
