<?xml version="1.0" standalone="no"?>
<!DOCTYPE svg PUBLIC "-//W3C//DTD SVG 20010904//EN"
 "http://www.w3.org/TR/2001/REC-SVG-20010904/DTD/svg10.dtd">
<svg version="1.0" xmlns="http://www.w3.org/2000/svg"
 width="128.000000pt" height="128.000000pt" viewBox="0 0 128.000000 128.000000"
 preserveAspectRatio="xMidYMid meet">

<g transform="translate(0.000000,128.000000) scale(0.100000,-0.100000)"
fill="#ffffff" stroke="none">
<path d="M426 1034 c-150 -27 -385 -121 -400 -159 -19 -52 -8 -74 151 -281
138 -180 160 -205 181 -201 27 5 38 -14 57 -103 7 -35 17 -55 26 -55 22 0 22
56 0 121 -12 31 -20 59 -18 60 9 8 116 34 141 34 28 0 33 -5 50 -53 10 -28 24
-77 30 -107 8 -35 18 -55 27 -55 23 0 22 57 -1 121 -39 106 -40 105 16 98 27
-3 70 -10 96 -15 44 -10 48 -14 67 -62 12 -29 25 -72 29 -97 5 -29 13 -45 22
-45 22 0 24 49 6 106 -20 61 -21 59 12 53 26 -5 34 2 99 88 39 51 109 144 157
206 85 112 97 140 80 187 -16 41 -249 132 -411 160 -106 19 -311 18 -417 -1z
m416 -39 c102 -18 220 -56 311 -101 54 -28 67 -39 67 -58 0 -15 -53 -93 -146
-214 l-147 -191 -31 13 c-28 11 -31 17 -34 58 -2 28 5 68 18 104 12 33 27 78
34 102 11 44 11 44 30 23 11 -12 25 -21 33 -21 26 0 10 36 -34 74 l-44 40 -52
-52 c-43 -43 -48 -52 -33 -58 11 -4 26 2 42 16 33 32 32 10 -2 -73 -14 -34
-28 -90 -31 -125 -5 -51 -9 -62 -21 -57 -15 5 -136 24 -159 25 -19 0 -16 43 8
108 11 31 26 76 33 100 11 44 11 44 30 23 11 -12 25 -21 33 -21 26 0 10 36
-34 74 l-44 40 -52 -52 c-43 -43 -48 -52 -33 -58 11 -4 26 2 42 16 33 32 32
10 -2 -73 -14 -34 -28 -86 -31 -114 -5 -49 -8 -53 -32 -53 -14 0 -51 -7 -81
-15 -30 -8 -61 -15 -67 -15 -20 0 -16 83 8 148 11 31 26 76 33 100 11 44 11
44 30 23 11 -12 25 -21 33 -21 26 0 10 36 -34 74 l-44 40 -52 -52 c-43 -43
-48 -52 -33 -58 11 -4 26 2 42 16 33 32 32 9 -2 -73 -20 -46 -28 -83 -30 -142
-2 -44 -6 -80 -9 -80 -3 0 -71 85 -150 189 -91 118 -145 198 -145 213 0 46
223 134 420 166 64 11 285 6 362 -8z"/>
</g>
</svg>
