<?xml version="1.0" encoding="UTF-8" standalone="no"?>
<svg
   version="1.0"
   width="110.04985pt"
   height="68.164215pt"
   viewBox="0 0 110.04985 68.164215"
   preserveAspectRatio="xMidYMid"
   id="svg1808"
   xmlns="http://www.w3.org/2000/svg"
   >
  <defs
     id="defs1812" />
  <g
     transform="matrix(0.1,0,0,-0.1,-8.982812,108)"
     fill="#ffffff"
     stroke="none"
     id="g1806"
     style="fill:#ffffff">
    <path
       d="M 110,1060 C 91,1041 90,1027 90,740 90,374 79,400 233,400 h 392.71701 c 250.06564,-3.69494 211.34715,0 388.28299,0 192,0 176,-32 176,340 0,287 -1,301 -20,320 -19,19 -33,20 -530,20 -497,0 -511,-1 -530,-20 z M 1145,740 V 445 c -405.02846,-4.91486 -661.03183,-5.46584 -1010,0 l -3,285 c -1,157 0,290 3,297 3,11 108,13 507,11 l 503,-3 z"
       id="path1804"
       style="fill:#ffffff" />
  </g>
  <path
     d="m 69.936379,20.198959 -8,3.8 -0.5,-2.7 c -0.7,-3.6 -2.6,-3.3 -14.2,2.2 l -9.8,4.6 v -2.9 c 0,-1.6 -0.4,-3.1 -1,-3.5 -1.1,-0.7 -23,10.1 -23,11.4 0,2.4 2.6,1.9 11,-2.3 l 9,-4.5 v 3 c 0,1.6 0.6,3.2 1.3,3.5 0.7,0.2 6,-1.7 11.7,-4.4 l 10.5,-4.9 0.3,2.4 c 0.2,1.3 0.9,2.6 1.6,2.9 2,0.8 22.9,-9.3 22.4,-10.8 -0.8,-2.2 -3,-1.8 -11.3,2.2 z"
     id="path1816"
     style="fill:#ffffff;stroke-width:0.1" />
  <path
     d="m 85.936379,36.198959 -8,3.8 -0.5,-2.7 c -0.7,-3.6 -2.6,-3.3 -14.2,2.2 l -9.8,4.6 v -2.9 c 0,-1.6 -0.4,-3.1 -1,-3.5 -1.1,-0.7 -23,10.1 -23,11.4 0,2.4 2.6,1.9 11,-2.3 l 9,-4.5 v 3 c 0,1.6 0.6,3.2 1.3,3.5 0.7,0.2 6,-1.7 11.7,-4.4 l 10.5,-4.9 0.3,2.4 c 0.2,1.3 0.9,2.6 1.6,2.9 2,0.8 22.90001,-9.3 22.40001,-10.8 -0.8,-2.2 -3.00001,-1.8 -11.30001,2.2 z"
     id="path1818"
     style="fill:#ffffff;stroke-width:0.1" />
</svg>
