<?xml version="1.0" standalone="no"?>
<!DOCTYPE svg PUBLIC "-//W3C//DTD SVG 20010904//EN"
 "http://www.w3.org/TR/2001/REC-SVG-20010904/DTD/svg10.dtd">
<svg version="1.0" xmlns="http://www.w3.org/2000/svg"
 width="128.000000pt" height="128.000000pt" viewBox="0 0 128.000000 128.000000"
 preserveAspectRatio="xMidYMid meet">

<g transform="translate(0.000000,128.000000) scale(0.100000,-0.100000)"
fill="#ffffff" stroke="none">
<path d="M297 839 c-79 -9 -140 -36 -197 -87 -33 -31 -44 -50 -60 -109 -21
-76 -24 -110 -14 -138 7 -18 54 -45 79 -45 9 0 33 -18 54 -40 34 -35 43 -40
84 -40 37 0 53 6 81 31 l35 30 278 -7 c274 -6 278 -7 315 -31 46 -31 100 -33
139 -4 16 12 50 24 76 28 83 11 114 71 82 161 -12 36 -51 55 -209 101 -58 17
-154 56 -215 86 -97 49 -121 57 -200 65 -103 11 -229 11 -328 -1z m318 -39
c80 -8 101 -15 195 -63 58 -30 147 -66 198 -81 152 -44 199 -64 206 -89 17
-63 1 -97 -45 -97 -23 0 -27 5 -33 38 -6 42 -35 75 -80 92 -58 22 -132 -26
-142 -92 l-7 -38 -107 0 c-59 0 -181 3 -272 7 l-166 6 -6 29 c-3 16 -19 43
-35 59 -55 55 -150 34 -181 -41 -13 -32 -29 -37 -61 -20 -23 13 -24 44 -3 118
28 100 104 157 225 171 103 12 208 12 314 1z m-305 -270 c28 -53 -5 -110 -65
-110 -81 0 -105 104 -32 135 36 15 82 3 97 -25z m780 0 c28 -53 -5 -110 -65
-110 -81 0 -105 104 -32 135 36 15 82 3 97 -25z"/>
<path d="M524 739 c-12 -19 10 -28 80 -31 76 -3 102 -21 80 -55 -9 -15 -29
-18 -118 -21 l-107 -3 17 26 c15 23 15 25 -1 31 -12 5 -29 -6 -58 -35 l-42
-41 47 -47 c36 -36 50 -45 59 -36 9 9 8 18 -5 37 l-16 26 110 0 c104 0 112 1
135 25 33 32 33 78 0 110 -21 22 -33 25 -99 25 -43 0 -78 -5 -82 -11z"/>
</g>
</svg>
